<svg width="21" height="21" viewBox="0 0 21 21" fill="none" xmlns="http://www.w3.org/2000/svg">
<path d="M10.5 21C10.228 21 9.96724 20.892 9.77494 20.6997C9.58264 20.5074 9.47461 20.2466 9.47461 19.9746V1.02539C9.47461 0.75344 9.58264 0.492628 9.77494 0.30033C9.96724 0.108032 10.228 0 10.5 0C10.772 0 11.0328 0.108032 11.2251 0.30033C11.4174 0.492628 11.5254 0.75344 11.5254 1.02539V19.9746C11.5254 20.2466 11.4174 20.5074 11.2251 20.6997C11.0328 20.892 10.772 21 10.5 21Z" fill="#AB1216"/>
<path d="M19.9746 11.5254H1.02539C0.75344 11.5254 0.492628 11.4174 0.30033 11.2251C0.108032 11.0328 0 10.772 0 10.5C0 10.228 0.108032 9.96724 0.30033 9.77494C0.492628 9.58264 0.75344 9.47461 1.02539 9.47461H19.9746C20.2466 9.47461 20.5074 9.58264 20.6997 9.77494C20.892 9.96724 21 10.228 21 10.5C21 10.772 20.892 11.0328 20.6997 11.2251C20.5074 11.4174 20.2466 11.5254 19.9746 11.5254Z" fill="#AB1216"/>
</svg>
