<svg width="14" height="12" viewBox="0 0 14 12" fill="none" xmlns="http://www.w3.org/2000/svg">
<path d="M12 1.71429H10.7143L10.2857 0.857131C10.0333 0.358273 9.90215 0 9.42861 0H4.2857C3.81214 0 3.65571 0.408859 3.42855 0.857131L2.99997 1.71429H1.71429C0.767563 1.71429 0 2.48185 0 3.42857V10.2857C0 11.2324 0.767563 12 1.71429 12H12C12.9467 12 13.7143 11.2324 13.7143 10.2857V3.42857C13.7143 2.48187 12.9467 1.71429 12 1.71429ZM6.85714 10.2857C4.96372 10.2857 3.42857 8.75059 3.42857 6.85717C3.42857 4.96374 4.96372 3.42859 6.85714 3.42859C8.75057 3.42859 10.2857 4.96374 10.2857 6.85717C10.2857 8.75059 8.75059 10.2857 6.85714 10.2857Z" fill="white"/>
</svg>
