<svg width="36" height="36" viewBox="0 0 36 36" fill="none" xmlns="http://www.w3.org/2000/svg">
<g filter="url(#filter0_d_54_4764)">
<rect x="3" y="3" width="28" height="28" rx="14" fill="#E0E9EE" fill-opacity="0.6"/>
<path d="M22.4587 11.0001C22.3191 11.0034 22.1864 11.0619 22.0897 11.1626L17 16.2524L11.9102 11.1626C11.8609 11.1119 11.802 11.0715 11.7368 11.044C11.6717 11.0164 11.6016 11.0022 11.5309 11.0022C11.4257 11.0022 11.3228 11.0337 11.2356 11.0925C11.1483 11.1512 11.0805 11.2347 11.041 11.3322C11.0014 11.4298 10.9919 11.5368 11.0135 11.6398C11.0352 11.7428 11.0871 11.837 11.1626 11.9103L16.2523 17L11.1626 22.0898C11.1118 22.1385 11.0713 22.1969 11.0434 22.2614C11.0155 22.326 11.0007 22.3955 11 22.4658C10.9993 22.5362 11.0126 22.606 11.0392 22.6711C11.0658 22.7362 11.1051 22.7954 11.1549 22.8451C11.2046 22.8949 11.2638 22.9342 11.3289 22.9608C11.394 22.9874 11.4638 23.0007 11.5342 23C11.6045 22.9993 11.674 22.9845 11.7386 22.9566C11.8031 22.9287 11.8615 22.8882 11.9102 22.8374L17 17.7477L22.0897 22.8374C22.1384 22.8882 22.1968 22.9287 22.2614 22.9566C22.3259 22.9845 22.3954 22.9993 22.4658 23C22.5361 23.0007 22.6059 22.9874 22.671 22.9608C22.7361 22.9342 22.7953 22.8949 22.8451 22.8451C22.8948 22.7954 22.9341 22.7362 22.9607 22.6711C22.9873 22.606 23.0006 22.5362 22.9999 22.4658C22.9992 22.3955 22.9844 22.326 22.9565 22.2614C22.9286 22.1969 22.8881 22.1385 22.8374 22.0898L17.7476 17L22.8374 11.9103C22.9143 11.8365 22.9671 11.7412 22.9888 11.6369C23.0106 11.5325 23.0004 11.4241 22.9594 11.3257C22.9185 11.2273 22.8488 11.1435 22.7594 11.0855C22.6701 11.0274 22.5653 10.9976 22.4587 11.0001Z" fill="#AB1216"/>
</g>
<defs>
<filter id="filter0_d_54_4764" x="0" y="0" width="36" height="36" filterUnits="userSpaceOnUse" color-interpolation-filters="sRGB">
<feFlood flood-opacity="0" result="BackgroundImageFix"/>
<feColorMatrix in="SourceAlpha" type="matrix" values="0 0 0 0 0 0 0 0 0 0 0 0 0 0 0 0 0 0 127 0" result="hardAlpha"/>
<feOffset dx="1" dy="1"/>
<feGaussianBlur stdDeviation="2"/>
<feComposite in2="hardAlpha" operator="out"/>
<feColorMatrix type="matrix" values="0 0 0 0 0 0 0 0 0 0 0 0 0 0 0 0 0 0 0.04 0"/>
<feBlend mode="normal" in2="BackgroundImageFix" result="effect1_dropShadow_54_4764"/>
<feBlend mode="normal" in="SourceGraphic" in2="effect1_dropShadow_54_4764" result="shape"/>
</filter>
</defs>
</svg>
