<svg width="17" height="18" viewBox="0 0 17 18" fill="none" xmlns="http://www.w3.org/2000/svg">
<path d="M13.6755 12.8634L13.9875 15.3913C14.0675 16.0552 13.3555 16.5192 12.7875 16.1752L9.4357 14.1833C9.06772 14.1833 8.70774 14.1593 8.35576 14.1113C8.96211 13.4084 9.29694 12.5117 9.29971 11.5835C9.29971 9.31157 7.33181 7.47167 4.89994 7.47167C3.97199 7.47167 3.11603 7.73565 2.40407 8.19963C2.38007 7.99964 2.37207 7.79965 2.37207 7.59166C2.37207 3.95185 5.53191 1 9.4357 1C13.3395 1 16.4993 3.95185 16.4993 7.59166C16.4993 9.75155 15.3874 11.6634 13.6755 12.8634Z" stroke="white" stroke-linecap="round" stroke-linejoin="round"/>
<path d="M9.3002 11.5835C9.3002 12.5354 8.94822 13.4154 8.35625 14.1113C7.56429 15.0713 6.30836 15.6873 4.90043 15.6873L2.81254 16.9272C2.46055 17.1432 2.01258 16.8472 2.06058 16.4392L2.26056 14.8633C1.18862 14.1193 0.500656 12.9274 0.500656 11.5835C0.500656 10.1755 1.25262 8.9356 2.40456 8.19964C3.11652 7.73567 3.97248 7.47168 4.90043 7.47168C7.3323 7.47168 9.3002 9.31158 9.3002 11.5835Z" stroke="white" stroke-linecap="round" stroke-linejoin="round"/>
</svg>
