<svg width="20" height="20" viewBox="0 0 20 20" fill="none" xmlns="http://www.w3.org/2000/svg">
<path d="M19 7.30002V12.7C19 14.95 18.55 16.525 17.542 17.542L11.8 11.8L18.757 4.84302C18.919 5.55402 19 6.36402 19 7.30002Z" stroke="#AB1216" stroke-linecap="round" stroke-linejoin="round"/>
<path d="M18.757 4.843L4.843 18.757C2.134 18.136 1 16.264 1 12.7V7.3C1 2.8 2.8 1 7.3 1H12.7C16.264 1 18.136 2.134 18.757 4.843Z" stroke="#AB1216" stroke-linecap="round" stroke-linejoin="round"/>
<path d="M17.5416 17.542C16.5246 18.55 14.9496 19 12.6996 19H7.29958C6.36358 19 5.55358 18.919 4.84258 18.757L11.7996 11.8L17.5416 17.542Z" stroke="#AB1216" stroke-linecap="round" stroke-linejoin="round"/>
<path d="M4.81624 6.38192C5.42824 3.74492 9.38824 3.74492 10.0002 6.38192C10.3512 7.92992 9.37924 9.24393 8.52424 10.0539C8.22314 10.3401 7.82362 10.4996 7.40824 10.4996C6.99285 10.4996 6.59334 10.3401 6.29224 10.0539C5.43724 9.24393 4.45624 7.92992 4.81624 6.38192Z" stroke="#AB1216"/>
<path d="M7.38525 7.02991H7.39425" stroke="#AB1216" stroke-width="2.5" stroke-linecap="round" stroke-linejoin="round"/>
</svg>
