<svg width="120" height="118" viewBox="0 0 120 118" fill="none" xmlns="http://www.w3.org/2000/svg">
<path d="M112.23 95.1106C108.96 88.2406 87.0303 91.1806 78.2303 87.5806C69.4303 83.9806 69.3903 66.6406 69.3903 66.6406H49.7303C49.7303 66.6406 49.7303 83.9806 40.9003 87.5806C32.0703 91.1806 10.1403 88.2406 6.90027 95.1106C3.66027 101.981 1.34027 111.801 0.0302734 118.341H119.1C117.79 111.831 115.5 102.011 112.23 95.1106Z" fill="#F2AB88"/>
<path d="M113.09 95.108C110.09 88.858 91.63 90.718 81.62 88.418C73 92.888 65.83 94.418 60 94.518C54.17 94.618 47 92.888 38.38 88.418C28.38 90.718 9.9 88.858 6.91 95.108C3.62 101.978 1.31 111.798 0 118.338H120C118.69 111.828 116.38 102.008 113.09 95.108Z" fill="#AB1216"/>
<g style="mix-blend-mode:multiply" opacity="0.55">
<path d="M58.6798 85.618C67.5298 85.618 71.5298 82.738 72.6798 82.058C69.3698 75.678 69.3598 66.668 69.3598 66.668H49.7298C49.7298 66.668 49.7298 76.338 46.0498 82.738C46.6498 82.988 53.2398 85.618 58.6798 85.618Z" fill="#DCB890"/>
</g>
<path d="M30.7999 47.1807C34.0299 42.8007 41.3499 49.9307 41.3499 49.9307C41.3499 49.9307 45.8999 55.2407 40.6099 61.6607C37.9599 64.8707 34.8999 62.4407 32.8599 58.6607C30.8199 54.8807 28.4999 50.3007 30.7999 47.1807Z" fill="#F2AB88"/>
<path d="M35.4502 59.1106C35.7687 59.5068 36.1826 59.8156 36.6531 60.008C37.1237 60.2005 37.6354 60.2701 38.1402 60.2106C38.3755 60.1362 38.5783 59.9836 38.7147 59.778C38.8512 59.5724 38.9131 59.3262 38.8902 59.0806C38.5802 58.1306 35.5502 56.4405 36.3102 53.7905C37.0702 51.1405 33.6702 48.5506 32.6102 50.0206C31.7902 51.1106 32.7802 56.3606 35.4502 59.1106Z" fill="#DB7A5B"/>
<path d="M88.2601 47.1807C85.0401 42.8007 77.7101 49.9307 77.7101 49.9307C77.7101 49.9307 73.1701 55.2407 78.4601 61.6607C81.1101 64.8707 84.1701 62.4407 86.2101 58.6607C88.2501 54.8807 90.5701 50.3007 88.2601 47.1807Z" fill="#F2AB88"/>
<path d="M83.6204 59.1106C83.302 59.5068 82.8881 59.8156 82.4175 60.008C81.947 60.2005 81.4353 60.2701 80.9304 60.2106C80.6951 60.1362 80.4924 59.9836 80.356 59.778C80.2195 59.5724 80.1576 59.3262 80.1804 59.0806C80.4904 58.1306 83.5204 56.4405 82.7604 53.7905C82.0004 51.1405 85.4005 48.5506 86.4605 50.0206C87.2805 51.1106 86.2804 56.3606 83.6204 59.1106Z" fill="#DB7A5B"/>
<path d="M83.4397 26.4294C82.7997 22.8494 80.3497 19.8193 77.2497 17.3493C72.2487 13.3262 66.0231 11.1328 59.6047 11.1328C53.1863 11.1328 46.9607 13.3262 41.9597 17.3493C38.8597 19.8193 36.4097 22.8494 35.7697 26.4294C35.7697 26.4294 34.2597 54.5594 41.2697 65.3394C46.7097 73.6994 53.5497 78.2293 59.6097 78.2293C65.6697 78.2293 72.4997 73.6994 77.9397 65.3394C84.9997 54.5594 83.4397 26.4294 83.4397 26.4294Z" fill="#F2AB88"/>
<path d="M38.1797 49.0283C37.4097 36.7183 38.7298 27.5783 39.4398 26.4883C43.03 23.61 45.8394 19.8756 47.6098 15.6283C47.6098 15.6283 57.7298 20.5383 73.7398 18.5683C73.7398 18.5683 76.7398 22.7683 79.4098 27.0783C80.7198 29.1683 81.2798 41.1883 80.9198 48.9883C80.8922 49.5479 80.9881 50.1068 81.2007 50.6252C81.4132 51.1437 81.7373 51.609 82.1497 51.9883L82.6698 52.4683C84.6698 48.4683 86.5998 31.6383 85.5998 26.0783C82.7798 10.3883 71.4398 8.73828 60.1498 8.73828C55.4465 8.76586 50.8069 9.8276 46.5598 11.8483C45.6898 11.5883 44.3698 11.2883 44.3898 11.1083C38.3898 11.5183 35.2598 20.1083 33.4798 26.1083C31.6998 32.1083 34.4798 48.5083 36.4098 52.4983C36.9928 52.1359 37.4657 51.6211 37.7776 51.0096C38.0896 50.3981 38.2286 49.713 38.1797 49.0283Z" fill="#995235"/>
<g style="mix-blend-mode:multiply" opacity="0.35">
<path d="M44.7099 17.3778C45.2766 17.6311 45.8365 17.8911 46.3899 18.1578C46.8442 17.3383 47.2515 16.4936 47.6099 15.6278C47.6099 15.6278 57.7299 20.5378 73.7399 18.5678C73.7399 18.5678 76.2699 22.1278 78.7399 26.0678C80.9266 25.4143 83.003 24.4368 84.8999 23.1678C81.2499 10.1678 70.6699 8.75781 60.1199 8.75781C55.4166 8.78539 50.777 9.84716 46.5299 11.8678C45.6599 11.6078 44.3399 11.3078 44.3599 11.1278C42.5451 11.3007 40.8593 12.1418 39.6299 13.4878C39.6505 13.5081 39.6674 13.5318 39.6799 13.5578C41.0207 15.2215 42.7474 16.5327 44.7099 17.3778Z" fill="#995235"/>
</g>
<path d="M86.1096 8.10828C86.1096 13.6183 77.1097 11.2983 65.2397 4.62827C53.6497 -1.90173 47.8996 3.76829 45.5596 7.52829C46.0341 4.88086 46.9502 2.33201 48.2697 -0.0117188C42.2697 2.81828 42.6697 7.70827 43.4597 10.4183C41.3197 9.97827 38.1296 9.87827 35.6396 12.0983C35.6396 12.0983 41.7596 11.0983 44.0096 13.0983C44.3096 13.3483 45.2497 13.7983 45.3596 13.8983C51.6996 20.8983 57.9697 24.2583 71.0197 23.3183C78.2297 22.7983 80.6397 21.9583 84.0197 18.3183C88.1297 13.9183 86.1096 8.10828 86.1096 8.10828Z" fill="#995235"/>
<g style="mix-blend-mode:multiply" opacity="0.5">
<path d="M71.0004 23.2994C77.8004 22.8094 80.3204 22.0294 83.4604 18.8794C78.4994 19.125 73.6404 17.412 69.9304 14.1094C69.8204 15.9094 70.7104 18.3094 73.1104 21.1094C67.3932 20.3417 61.984 18.0635 57.4404 14.5094C58.4404 16.4294 59.3804 19.6094 60.3404 20.5694C57.3404 20.5694 49.4304 17.0994 47.6504 16.2994C53.3004 21.5894 59.5304 24.1094 71.0004 23.2994Z" fill="#995235"/>
</g>
<path d="M75.6304 45.5472C75.6304 47.9972 72.7704 49.9772 69.2404 49.9772C65.7104 49.9772 62.8604 47.9772 62.8604 45.5472C62.8604 43.1172 65.7204 41.1172 69.2404 41.1172C72.7604 41.1172 75.6304 43.1072 75.6304 45.5472Z" fill="#E78660"/>
<path d="M71.6904 48.7781C70.5239 49.0063 69.3389 49.1268 68.1504 49.1381C67.2139 49.1496 66.2853 48.9651 65.4242 48.5966C64.5632 48.228 63.7887 47.6836 63.1504 46.9981C63.7953 48.0573 64.7054 48.9299 65.7907 49.5299C66.876 50.1299 68.099 50.4364 69.3389 50.4193C70.5789 50.4021 71.7929 50.0618 72.8612 49.432C73.9295 48.8023 74.815 47.9047 75.4304 46.8281C74.3676 47.7824 73.0812 48.4531 71.6904 48.7781Z" fill="#884627"/>
<path d="M43.1904 45.5494C43.1904 47.9994 46.0104 49.9794 49.4804 49.9794C52.9504 49.9794 55.7804 47.9794 55.7804 45.5494C55.7804 43.1194 53.0004 41.1094 49.4804 41.1094C45.9604 41.1094 43.1904 43.1094 43.1904 45.5494Z" fill="#E78660"/>
<path d="M47 48.7781C48.1631 49.0063 49.3448 49.1268 50.53 49.1381C51.4662 49.1471 52.394 48.9615 53.2547 48.5931C54.1154 48.2248 54.8902 47.6816 55.53 46.9981C54.8851 48.0573 53.975 48.9299 52.8897 49.5299C51.8044 50.1299 50.5814 50.4364 49.3415 50.4193C48.1015 50.4021 46.8874 50.0618 45.8192 49.432C44.7509 48.8023 43.8654 47.9047 43.25 46.8281C44.3141 47.786 45.6047 48.4571 47 48.7781Z" fill="#884627"/>
<path d="M58.77 59.0385C58.0553 59.0375 57.3469 58.9053 56.68 58.6485C56.2009 58.5189 55.7642 58.2661 55.4133 57.9152C55.0624 57.5643 54.8095 57.1276 54.68 56.6485C54.47 55.4085 58.35 38.4085 58.34 38.3285C58.3161 38.1959 58.3459 38.0592 58.4228 37.9486C58.4997 37.8379 58.6174 37.7624 58.75 37.7385C58.8826 37.7146 59.0193 37.7444 59.1299 37.8213C59.2405 37.8982 59.3161 38.0159 59.34 38.1485C59.4 38.4685 55.55 55.6685 55.69 56.4885C55.77 56.9985 56.27 57.4885 57.04 57.7785C57.5782 58.0143 58.1628 58.125 58.7499 58.1025C59.337 58.08 59.9114 57.9248 60.43 57.6485C60.4812 57.6091 60.5397 57.5802 60.6021 57.5634C60.6645 57.5466 60.7296 57.5423 60.7936 57.5506C60.8577 57.559 60.9195 57.5799 60.9755 57.6121C61.0315 57.6443 61.0806 57.6873 61.12 57.7385C61.1594 57.7897 61.1883 57.8482 61.2051 57.9106C61.2219 57.973 61.2263 58.0381 61.2179 58.1022C61.2095 58.1662 61.1886 58.228 61.1564 58.284C61.1242 58.34 61.0812 58.3891 61.03 58.4285C60.3613 58.8684 59.5692 59.0822 58.77 59.0385Z" fill="#CE7959"/>
<path d="M77.8298 54.8788C77.8298 57.1788 75.3098 59.0388 72.1898 59.0388C69.0698 59.0388 66.5498 57.1788 66.5498 54.8788C66.5498 52.5788 69.0698 50.7188 72.1898 50.7188C75.3098 50.7188 77.8298 52.5888 77.8298 54.8788Z" fill="url(#paint0_radial_156_10481)"/>
<path d="M40.4805 54.8788C40.4805 57.1788 43.0105 59.0388 46.1305 59.0388C49.2505 59.0388 51.7705 57.1788 51.7705 54.8788C51.7705 52.5788 49.2405 50.7188 46.1305 50.7188C43.0205 50.7188 40.4805 52.5888 40.4805 54.8788Z" fill="url(#paint1_radial_156_10481)"/>
<g style="mix-blend-mode:multiply" opacity="0.35">
<path d="M38.0004 39.6391C36.4337 39.5826 34.8838 39.2962 33.4004 38.7891C34.0804 44.5791 35.4004 50.3291 36.4004 52.4891C36.9765 52.1257 37.4435 51.6131 37.7516 51.0056C38.0598 50.3982 38.1976 49.7186 38.1504 49.0391C38.0004 45.6091 37.9204 42.4591 38.0004 39.6391Z" fill="#995235"/>
</g>
<g style="mix-blend-mode:multiply" opacity="0.35">
<path d="M80.9997 39.8759C81.0997 43.0259 81.0897 46.2559 80.9997 48.9859C80.9722 49.5456 81.0681 50.1044 81.2807 50.6229C81.4932 51.1413 81.8172 51.6067 82.2297 51.9859L82.7497 52.4659C83.8597 50.2159 84.9597 43.9159 85.5397 37.8359C84.1619 38.7843 82.6238 39.4754 80.9997 39.8759Z" fill="#995235"/>
</g>
<path d="M60.66 68.1773C60.5595 68.178 60.4613 68.1464 60.38 68.0873C59.7781 67.6707 59.0698 67.4344 58.3383 67.4061C57.6068 67.3777 56.8824 67.5585 56.25 67.9273C56.1402 67.9861 56.0124 68.0019 55.8916 67.9715C55.7708 67.9411 55.6657 67.8667 55.5969 67.7628C55.5281 67.659 55.5005 67.5332 55.5196 67.4101C55.5386 67.287 55.603 67.1754 55.7 67.0972C56.4945 66.6118 57.4132 66.3683 58.3438 66.3968C59.2745 66.4252 60.1767 66.7242 60.94 67.2572C60.9949 67.2944 61.0418 67.342 61.0781 67.3974C61.1144 67.4529 61.1393 67.5149 61.1514 67.5801C61.1635 67.6452 61.1625 67.7121 61.1486 67.7768C61.1346 67.8416 61.1079 67.9029 61.07 67.9572C61.0253 68.025 60.9644 68.0806 60.8928 68.119C60.8212 68.1574 60.7412 68.1774 60.66 68.1773Z" fill="#CE7959"/>
<path d="M64.6403 67.1081C64.5186 67.1098 64.3984 67.0815 64.2902 67.0257C64.1821 66.9699 64.0894 66.8883 64.0203 66.788C63.3624 65.9422 62.5333 65.2449 61.5872 64.7417C60.6411 64.2385 59.5994 63.9408 58.5303 63.8681C57.5402 63.8124 56.5534 64.0244 55.6735 64.4819C54.7937 64.9394 54.0533 65.6255 53.5303 66.468C53.4322 66.6418 53.2691 66.7694 53.0768 66.8228C52.8846 66.8763 52.679 66.8512 52.5053 66.753C52.3316 66.6549 52.204 66.4918 52.1505 66.2996C52.0971 66.1074 52.1222 65.9018 52.2203 65.7281C52.8853 64.6478 53.8282 63.7661 54.9505 63.175C56.0729 62.5839 57.3334 62.3052 58.6003 62.3681C59.9003 62.445 61.1682 62.8031 62.3163 63.4178C63.4644 64.0324 64.4654 64.8889 65.2503 65.9281C65.3479 66.0887 65.3826 66.2799 65.3475 66.4646C65.3124 66.6493 65.2101 66.8144 65.0603 66.9281C64.9428 67.0309 64.7958 67.0939 64.6403 67.1081Z" fill="#CE7959"/>
<path d="M54.8896 37.4883C54.5543 37.6742 54.272 37.9427 54.0696 38.2683C53.8379 38.5684 53.5306 38.8015 53.1792 38.9438C52.8278 39.0862 52.4449 39.1326 52.0696 39.0783C50.1573 38.7908 48.2208 38.697 46.2896 38.7983C44.5496 39.1083 40.8196 40.4483 40.8796 41.3483C40.9396 42.2483 46.5596 41.4483 47.2096 41.6583C47.8596 41.8683 54.4696 42.7083 55.1196 42.0383C55.2829 41.8771 55.4151 41.6873 55.5096 41.4783C56.5796 40.2683 55.5696 37.4783 54.8896 37.4883Z" fill="#884627"/>
<path d="M72.7097 38.5791C70.5442 38.3395 68.3604 38.3127 66.1897 38.4991C65.8554 38.5152 65.5218 38.4542 65.2148 38.3206C64.9079 38.1871 64.6358 37.9847 64.4197 37.7291C64.2048 37.4374 63.9238 37.201 63.5997 37.0391C62.9197 37.0991 62.1897 39.9691 63.2997 41.0391C63.5997 41.3191 63.8497 41.4691 64.0697 41.4391C66.5087 41.675 68.9657 41.6516 71.3997 41.3691C72.0697 41.2091 77.5297 42.3691 77.7097 41.4991C77.8897 40.6291 74.3997 39.0191 72.7097 38.5791Z" fill="#884627"/>
<defs>
<radialGradient id="paint0_radial_156_10481" cx="0" cy="0" r="1" gradientUnits="userSpaceOnUse" gradientTransform="translate(72.2954 54.8788) scale(5.265 4.5)">
<stop stop-color="#F29788"/>
<stop offset="0.61" stop-color="#F2A388"/>
<stop offset="0.92" stop-color="#F2AB88"/>
</radialGradient>
<radialGradient id="paint1_radial_156_10481" cx="0" cy="0" r="1" gradientUnits="userSpaceOnUse" gradientTransform="translate(46.1396 54.8788) rotate(180) scale(5.265 4.5)">
<stop stop-color="#F29788"/>
<stop offset="0.61" stop-color="#F2A388"/>
<stop offset="0.92" stop-color="#F2AB88"/>
</radialGradient>
</defs>
</svg>
