<svg width="40" height="46" viewBox="0 0 40 46" fill="none" xmlns="http://www.w3.org/2000/svg">
<path d="M39 8.4209H1" stroke="#1E2C35" stroke-linecap="round"/>
<path d="M35.8332 10.0107L34.5249 31.2693C34.1905 36.7006 34.0236 39.4164 32.6682 41.369C31.9979 42.3342 31.1353 43.1489 30.1347 43.7611C28.111 44.9995 25.4022 44.9995 19.9845 44.9995C14.5598 44.9995 11.8474 44.9995 9.82231 43.7588C8.82111 43.1455 7.95809 42.3293 7.28819 41.3624C5.93328 39.4068 5.76982 36.6872 5.44293 31.2483L4.16653 10.0107" fill="#AB1216"/>
<path d="M35.8332 10.0107L34.5249 31.2693C34.1905 36.7006 34.0236 39.4164 32.6682 41.369C31.9979 42.3342 31.1353 43.1489 30.1347 43.7611C28.111 44.9995 25.4022 44.9995 19.9845 44.9995C14.5598 44.9995 11.8474 44.9995 9.82231 43.7588C8.82111 43.1455 7.95809 42.3293 7.28819 41.3624C5.93328 39.4068 5.76982 36.6872 5.44293 31.2483L4.16653 10.0107" stroke="#AB1216" stroke-width="1.5" stroke-linecap="round"/>
<path d="M28.5659 8.42186L27.1247 5.43558C26.1673 3.45189 25.6887 2.46003 24.8631 1.84145C24.6798 1.70423 24.486 1.58217 24.2831 1.47648C23.3688 1 22.2715 1 20.0767 1C17.8269 1 16.7019 1 15.7725 1.49646C15.5665 1.60649 15.3699 1.73349 15.1848 1.87614C14.3495 2.51979 13.8829 3.54792 12.9498 5.60423L11.6711 8.42186" stroke="#1E2C35" stroke-linecap="round"/>
</svg>
