<svg width="18" height="19" viewBox="0 0 18 19" fill="none" xmlns="http://www.w3.org/2000/svg">
<path d="M16.6133 11.5643C16.3657 11.5643 16.165 11.766 16.165 12.0149V16.0154C16.1641 16.7616 15.5626 17.3663 14.8201 17.367H2.24147C1.49898 17.3663 0.897462 16.7616 0.896586 16.0154V4.27427C0.897462 3.52821 1.49898 2.92348 2.24147 2.9226H6.22182C6.46943 2.9226 6.67011 2.72091 6.67011 2.47204C6.67011 2.22336 6.46943 2.02148 6.22182 2.02148H2.24147C1.00411 2.02289 0.00140092 3.03066 0 4.27427V16.0155C0.00140092 17.2591 1.00411 18.2669 2.24147 18.2683H14.8201C16.0575 18.2669 17.0602 17.2591 17.0616 16.0155V12.0149C17.0616 11.766 16.8609 11.5643 16.6133 11.5643V11.5643Z" fill="#AB1216"/>
<path d="M16.8835 0.86242C16.0957 0.0705995 14.8184 0.0705995 14.0306 0.86242L6.03276 8.90066C5.97794 8.95575 5.93837 9.02403 5.91771 9.09901L4.86597 12.9152C4.82271 13.0717 4.86667 13.2392 4.98084 13.3541C5.09519 13.4689 5.2619 13.5131 5.41758 13.4698L9.21459 12.4125C9.28918 12.3918 9.35713 12.352 9.41194 12.2969L17.4096 4.2585C18.1962 3.46615 18.1962 2.18347 17.4096 1.39112L16.8835 0.86242ZM7.00954 9.19352L13.5551 2.61467L15.6662 4.73634L9.12037 11.3152L7.00954 9.19352ZM6.58787 10.044L8.2744 11.7392L5.94152 12.3888L6.58787 10.044ZM16.7757 3.62138L16.3002 4.09922L14.1891 1.97738L14.6647 1.49954C15.1023 1.05972 15.8118 1.05972 16.2495 1.49954L16.7757 2.02824C17.2126 2.46859 17.2126 3.18121 16.7757 3.62138V3.62138Z" fill="#AB1216"/>
</svg>
