<svg width="24" height="24" viewBox="0 0 24 24" fill="none" xmlns="http://www.w3.org/2000/svg">
<g clip-path="url(#clip0_0_1795)">
<path d="M22.4004 10.0439L13.2229 10.0435C12.8176 10.0435 12.4891 10.3719 12.4891 10.7772V13.709C12.4891 14.1142 12.8176 14.4427 13.2228 14.4427H18.3911C17.8252 15.9114 16.7689 17.1414 15.4213 17.9229L17.625 21.7377C21.16 19.6933 23.25 16.1061 23.25 12.0904C23.25 11.5187 23.2078 11.1099 23.1235 10.6497C23.0595 10.3 22.7559 10.0439 22.4004 10.0439Z" fill="#167EE6"/>
<path d="M12 18.8478C9.47077 18.8478 7.26278 17.4659 6.07692 15.421L2.26221 17.6198C4.20349 20.9843 7.84014 23.25 12 23.25C14.0407 23.25 15.9662 22.7006 17.625 21.743V21.7378L15.4213 17.9229C14.4133 18.5076 13.2468 18.8478 12 18.8478Z" fill="#12B347"/>
<path d="M17.625 21.743V21.7377L15.4213 17.9229C14.4133 18.5075 13.2469 18.8478 12 18.8478V23.2499C14.0407 23.2499 15.9663 22.7005 17.625 21.743Z" fill="#0F993E"/>
<path d="M5.15218 12C5.15218 10.7533 5.4924 9.58698 6.07692 8.57901L2.2622 6.38025C1.2994 8.03378 0.75 9.9541 0.75 12C0.75 14.0459 1.2994 15.9663 2.2622 17.6198L6.07692 15.421C5.4924 14.4131 5.15218 13.2467 5.15218 12Z" fill="#FFD500"/>
<path d="M12 5.15218C13.6493 5.15218 15.1643 5.73823 16.3476 6.71307C16.6395 6.95354 17.0638 6.93618 17.3312 6.66877L19.4085 4.59148C19.7119 4.28808 19.6903 3.79146 19.3662 3.51029C17.3836 1.79032 14.804 0.75 12 0.75C7.84014 0.75 4.20349 3.01569 2.26221 6.38023L6.07692 8.57899C7.26278 6.53408 9.47077 5.15218 12 5.15218Z" fill="#FF4B26"/>
<path d="M16.3476 6.71307C16.6395 6.95354 17.0639 6.93618 17.3312 6.66877L19.4085 4.59148C19.7119 4.28808 19.6903 3.79146 19.3662 3.51029C17.3836 1.79027 14.804 0.75 12 0.75V5.15218C13.6493 5.15218 15.1643 5.73823 16.3476 6.71307Z" fill="#D93F21"/>
</g>
<defs>
<clipPath id="clip0_0_1795">
<rect width="22.5" height="22.5" fill="white" transform="translate(0.75 0.75)"/>
</clipPath>
</defs>
</svg>
