<svg width="16" height="16" viewBox="0 0 16 16" fill="none" xmlns="http://www.w3.org/2000/svg">
<path d="M2.02514 3.02945C1.70013 3.35582 1.44232 3.74328 1.26642 4.1697C1.09053 4.59613 1 5.05317 1 5.51473C1 5.97629 1.09053 6.43333 1.26642 6.85976C1.44232 7.28618 1.70013 7.67364 2.02514 8.00002L8.00001 14L13.9749 8.00002C14.6313 7.34088 15 6.44689 15 5.51473C15 4.58257 14.6313 3.68859 13.9749 3.02945C13.3185 2.37031 12.4283 2.00001 11.5 2.00001C10.5717 2.00001 9.68149 2.37031 9.02511 3.02945L8.00001 4.05886L6.9749 3.02945C6.64989 2.70307 6.26406 2.44418 5.83941 2.26754C5.41477 2.09091 4.95965 2 4.50002 2C4.04039 2 3.58526 2.09091 3.16062 2.26754C2.73598 2.44418 2.35014 2.70307 2.02514 3.02945V3.02945Z" stroke="#464447" stroke-linecap="round" stroke-linejoin="round"/>
</svg>
