<svg width="153" height="152" viewBox="0 0 153 152" fill="none" xmlns="http://www.w3.org/2000/svg">
<path d="M151.009 151H57.2503C30.7337 151 17.4754 151 9.23768 142.762C1 134.524 1 121.266 1 94.7497V1" fill="#FCF8F8"/>
<path d="M151.009 151H57.2503C30.7337 151 17.4754 151 9.23768 142.762C1 134.524 1 121.266 1 94.7497V1" stroke="#A7A7A7" stroke-width="2" stroke-linecap="round"/>
<path d="M1.00045 1.00757L94.75 1.00781C121.266 1.00781 134.524 1.00781 142.762 9.24549C151 17.4832 151 30.7415 151 57.2582L151 149.446" fill="#FCF8F8"/>
<path d="M1.00045 1.00757L94.75 1.00781C121.266 1.00781 134.524 1.00781 142.762 9.24549C151 17.4832 151 30.7415 151 57.2582L151 149.446" stroke="#A7A7A7" stroke-width="2" stroke-linecap="round"/>
<path d="M43.1878 57.2594C50.9543 57.2594 57.2503 50.9634 57.2503 43.1969C57.2503 35.4303 50.9543 29.1343 43.1878 29.1343C35.4212 29.1343 29.1252 35.4303 29.1252 43.1969C29.1252 50.9634 35.4212 57.2594 43.1878 57.2594Z" fill="#FCF8F8" stroke="#A7A7A7" stroke-width="2" stroke-linecap="round" stroke-linejoin="round"/>
<path d="M22 148.747C56.5352 115.339 93.0956 73.2838 151.001 106.514L22 148.747Z" fill="#FCF8F8"/>
<path d="M22 148.747C56.5352 115.339 93.0956 73.2838 151.001 106.514" stroke="#A7A7A7" stroke-width="2"/>
</svg>
