<svg width="10" height="15" viewBox="0 0 10 15" fill="none" xmlns="http://www.w3.org/2000/svg">
<path d="M5 0.5C2.24305 0.5 0 2.59352 0 5.16668C0 5.93914 0.206923 6.70504 0.600292 7.38436L4.72657 14.3496C4.78151 14.4425 4.88618 14.5 5 14.5C5.11382 14.5 5.2185 14.4425 5.27343 14.3496L9.40123 7.38207C9.79308 6.70504 10 5.93911 10 5.16665C10 2.59352 7.75695 0.5 5 0.5ZM5 7.5C3.62153 7.5 2.50002 6.45325 2.50002 5.16668C2.50002 3.8801 3.62153 2.83335 5 2.83335C6.37847 2.83335 7.49999 3.8801 7.49999 5.16668C7.49999 6.45325 6.37847 7.5 5 7.5Z" fill="#AB1216"/>
</svg>
