<svg width="18" height="25" viewBox="0 0 18 25" fill="none" xmlns="http://www.w3.org/2000/svg">
<path d="M17.5 9.5H16V7.49998C16 3.64016 12.8599 0.5 9 0.5C5.14012 0.5 2.00002 3.64016 2.00002 7.49998V9.5H0.500016C0.434341 9.49996 0.369301 9.51286 0.308617 9.53797C0.247933 9.56309 0.192794 9.59992 0.146355 9.64635C0.0999157 9.69279 0.0630866 9.74793 0.0379738 9.80862C0.0128609 9.8693 -4.30326e-05 9.93434 1.07813e-07 10V22.5C1.07813e-07 23.603 0.896953 24.5 2.00002 24.5H16C17.103 24.5 18 23.603 18 22.5V10C18 9.93434 17.9871 9.8693 17.962 9.80862C17.9369 9.74793 17.9001 9.69279 17.8536 9.64635C17.8072 9.59992 17.7521 9.56309 17.6914 9.53797C17.6307 9.51286 17.5657 9.49996 17.5 9.5ZM10.4971 19.9448C10.5048 20.0147 10.4977 20.0855 10.4763 20.1524C10.4548 20.2194 10.4195 20.2811 10.3726 20.3335C10.3257 20.3859 10.2683 20.4278 10.2041 20.4565C10.1399 20.4852 10.0704 20.5 10 20.5H8.00002C7.9297 20.5 7.86017 20.4852 7.79597 20.4565C7.73177 20.4278 7.67435 20.3859 7.62744 20.3335C7.58054 20.2811 7.5452 20.2194 7.52375 20.1524C7.5023 20.0855 7.49522 20.0147 7.50295 19.9448L7.81838 17.1084C7.30617 16.7359 7.00003 16.1465 7.00003 15.5C7.00003 14.397 7.89698 13.5 9.00005 13.5C10.1031 13.5 11.0001 14.3969 11.0001 15.5C11.0001 16.1465 10.6939 16.7359 10.1817 17.1084L10.4971 19.9448ZM13 9.5H5.00002V7.49998C5.00002 5.29442 6.79444 3.5 9 3.5C11.2056 3.5 13 5.29442 13 7.49998V9.5Z" fill="#AE0009"/>
</svg>
