<svg width="269" height="195" viewBox="0 0 269 195" fill="none" xmlns="http://www.w3.org/2000/svg">
<path d="M113.322 160.338H121.985C121.985 168.781 121.985 177.223 121.985 185.666C121.866 188.084 121.925 190.818 120.255 192.771C118.897 194.458 116.63 194.974 114.56 195C112.436 194.913 110.323 194.632 108.251 194.161C108.679 191.88 109.119 189.603 109.537 187.326C110.451 187.4 111.514 187.761 112.323 187.144C113.315 186.357 113.251 184.949 113.326 183.801C113.352 175.979 113.326 168.16 113.326 160.338M92.9012 175.567C91.2604 176.354 91.1187 178.969 92.711 179.883C94.695 180.845 97.2271 179.92 98.4913 178.207C99.4944 176.781 99.334 174.946 99.349 173.293C97.2383 174.163 94.9299 174.501 92.9012 175.567ZM86.1887 162.195C88.7246 159.966 92.3232 159.825 95.5117 159.77C98.4577 159.87 101.657 159.744 104.264 161.337C106.613 162.734 107.527 165.568 107.747 168.142C107.84 172.361 107.721 176.584 107.799 180.808C107.867 182.246 108.223 183.657 108.847 184.956C106.137 184.956 103.427 184.956 100.718 184.956C100.245 184.025 99.9336 183.02 99.7965 181.985C98.2128 183.773 96.0527 184.955 93.6881 185.328C90.7346 185.762 87.2627 185.677 84.973 183.471C81.6913 180.466 82.2544 174.036 86.5542 172.235C90.6563 170.511 95.2916 170.407 99.3602 168.521C99.2483 167.495 99.1924 166.132 98.0587 165.686C96.66 165.252 95.1555 165.296 93.785 165.813C92.6663 166.184 92.2151 167.336 91.7825 168.313C89.0602 168.003 86.3192 167.686 83.5596 167.362C83.9885 165.467 84.6299 163.476 86.1962 162.206M76.284 160.156C78.3612 159.294 80.6583 160.03 82.5267 161.062L79.8678 167.785C78.6297 167.291 77.138 166.723 75.8999 167.514C74.2404 168.628 73.9384 170.79 73.6624 172.614C73.2671 176.699 73.5319 180.845 73.4573 184.96C70.5485 184.96 67.6398 184.99 64.7348 184.938C64.8205 176.766 64.7049 168.617 64.7907 160.46C67.4011 160.16 70.1794 160.423 72.8532 160.338C72.8532 161.694 72.8532 163.049 72.8271 164.424C73.6027 162.774 74.494 160.917 76.284 160.171M44.4742 175.663C42.8743 176.536 42.8781 179.177 44.545 179.976C46.4916 180.796 48.8671 179.935 50.1388 178.315C51.209 176.874 51.0412 174.972 51.0711 173.305C48.9231 174.218 46.5364 174.519 44.4891 175.663M37.8064 162.292C40.387 159.955 44.1161 159.818 47.4202 159.777C50.3439 159.885 53.5323 159.777 56.098 161.404C58.5033 162.89 59.3647 165.898 59.5065 168.569C59.5512 172.655 59.4804 176.74 59.54 180.8C59.6079 182.24 59.9602 183.652 60.5767 184.956C57.888 184.979 55.203 184.916 52.518 184.994C51.9993 184.075 51.6602 183.067 51.5186 182.022C49.7041 184.031 47.1797 185.262 44.4742 185.458C41.8376 185.699 38.8543 185.458 36.8107 183.601C34.342 181.372 33.9728 177.439 35.5763 174.631C36.5944 172.84 38.6119 171.982 40.51 171.455C44.0602 170.549 47.7409 170.032 51.1084 168.528C50.9741 167.544 50.9555 166.255 49.915 165.761C48.5054 165.2 46.8683 165.352 45.4661 165.854C44.3847 166.247 43.9483 167.373 43.5195 168.335C40.7698 168.023 38.0227 167.707 35.278 167.388C35.6919 165.53 36.3035 163.592 37.8064 162.318M113.337 151H122C122 153.162 122 155.325 122 157.489H113.322C113.322 155.323 113.322 153.162 113.322 151M0 151H9.69586C9.69586 154.963 9.69586 158.926 9.69586 162.886H20.2009C20.2009 158.924 20.2009 154.962 20.2009 151H29.8744C29.8744 162.329 29.8744 173.656 29.8744 184.982H20.2009C20.2009 180.399 20.2009 175.818 20.2009 171.239H9.69586C9.69586 175.823 9.69586 180.404 9.69586 184.982H0C0 173.654 0 162.326 0 151Z" fill="#AB1216"/>
<path d="M209.853 164.936C211.265 164.936 212.682 164.936 214.098 164.936C214.098 173.1 214.098 181.262 214.098 189.424H209.853C209.853 181.26 209.853 173.099 209.853 164.94M252.832 169.635C251.337 170.954 250.698 172.911 250.508 174.806C255.177 174.806 259.846 174.806 264.515 174.806C264.276 172.959 263.846 170.976 262.407 169.657C259.911 167.134 255.366 167.167 252.832 169.616M250.493 166.587C253.169 164.511 256.798 164.001 260.079 164.589C261.671 164.887 263.172 165.546 264.464 166.514C265.756 167.481 266.803 168.732 267.524 170.167C268.787 172.653 269.063 175.494 268.989 178.238C262.76 178.238 256.531 178.238 250.302 178.238C250.485 180.636 251.169 183.192 253.094 184.817C254.206 185.764 255.582 186.357 257.041 186.518C258.5 186.679 259.974 186.402 261.271 185.722C262.893 184.839 263.813 183.162 264.489 181.526C265.952 181.698 267.415 181.878 268.88 182.065C268.174 184.411 266.866 186.661 264.769 188.061C261.91 190.029 258.188 190.277 254.847 189.693C253.206 189.397 251.66 188.72 250.337 187.717C249.014 186.713 247.951 185.413 247.237 183.923C245.843 180.968 245.713 177.581 246.116 174.393C246.531 171.386 247.985 168.438 250.478 166.595M224.316 168.368C224.985 167.383 225.845 166.54 226.846 165.887C227.848 165.234 228.971 164.786 230.15 164.567C233.14 164.042 236.586 164.567 238.84 166.72C240.85 168.818 240.876 171.892 240.843 174.592C240.869 179.52 240.79 184.448 240.884 189.368C239.453 189.449 238.014 189.427 236.582 189.398C236.616 184.33 236.582 179.261 236.582 174.193C236.545 172.409 236.44 170.307 234.897 169.11C232.37 167.182 228.416 167.803 226.301 170.078C224.925 171.737 224.806 174.005 224.739 176.059C224.739 180.492 224.697 184.924 224.772 189.357C223.348 189.427 221.924 189.398 220.5 189.394V164.929C221.775 164.929 223.049 164.929 224.324 164.929C224.324 166.078 224.324 167.223 224.298 168.371M176.086 168.371C178.937 163.939 185.553 163.17 189.787 166.018C191.813 167.448 192.545 170.03 192.568 172.383C192.65 178.046 192.538 183.709 192.624 189.376C191.2 189.438 189.772 189.416 188.348 189.409C188.348 184.237 188.348 179.043 188.348 173.861C188.311 172.176 188.12 170.218 186.666 169.103C183.583 166.742 178.111 168.19 177.05 172.032C176.553 173.569 176.534 175.202 176.534 176.801C176.534 180.998 176.534 185.198 176.534 189.394C175.11 189.427 173.686 189.424 172.266 189.394C172.266 181.238 172.266 173.081 172.266 164.925C173.541 164.925 174.815 164.925 176.09 164.925C176.09 166.074 176.09 167.223 176.09 168.375M209.815 155.616C211.228 155.616 212.643 155.616 214.061 155.616C214.061 157.205 214.061 158.793 214.061 160.381C212.645 160.381 211.228 160.381 209.815 160.381C209.815 158.797 209.815 157.212 209.815 155.627M198.977 155.627C200.39 155.627 201.803 155.627 203.219 155.627C203.219 166.894 203.219 178.159 203.219 189.424H199.033C199.033 178.157 199.033 166.893 199.033 155.631M147.316 159.281C143.896 160.175 140.828 162.683 139.733 166.085C138.59 169.671 138.395 173.485 139.165 177.167C140.028 181.168 143.145 184.692 147.192 185.752C150.47 186.601 154.178 186.21 157.007 184.274C159.116 182.839 160.678 180.746 161.443 178.331C162.318 175.415 162.523 172.343 162.041 169.339C161.57 166.177 160.109 163.023 157.459 161.083C154.615 158.933 150.732 158.383 147.316 159.269M147.357 155.25C152.047 154.489 157.134 155.439 160.886 158.431C164.807 161.464 166.739 166.425 166.963 171.242C167.277 176.384 165.842 181.884 162.06 185.593C156.263 191.104 146.262 191.503 140.035 186.468C136.122 183.351 134.134 178.323 134.007 173.443C133.91 169.088 134.799 164.511 137.546 160.998C139.946 157.906 143.46 155.847 147.357 155.25Z" fill="#0B1017"/>
<path d="M122.547 1.35055C137.413 -1.83592 152.935 0.662795 166.046 8.3529C178.836 15.9434 188.836 28.3697 192.97 42.6796C188.87 32.312 181.482 23.184 171.835 17.4883C159.423 9.94619 143.681 8.30822 129.975 13.0732C123.67 15.2366 117.862 18.6397 112.894 23.0815C107.927 27.5234 103.901 32.9141 101.054 38.9353C98.2073 44.9566 96.5969 51.4865 96.3183 58.1395C96.0397 64.7926 97.0984 71.4339 99.432 77.6716C101.766 83.9093 105.327 89.6169 109.905 94.4575C114.484 99.2981 119.987 103.174 126.09 105.855C132.193 108.537 138.772 109.97 145.438 110.071C152.105 110.172 158.725 108.938 164.906 106.442C175.626 102.082 184.807 93.9408 190.178 83.6774C191.229 81.7565 192.102 79.75 193 77.7546C189.645 89.321 182.455 99.6439 173.114 107.194C164.586 114.026 154.361 118.419 143.53 119.904C132.699 121.39 121.667 119.912 111.61 115.629C111.036 115.316 110.425 115.588 109.94 115.919C102.085 120.965 94.2263 125.992 86.3638 131C89.5135 122.602 92.7453 114.248 95.9062 105.838C87.4185 98.5211 81.1408 88.9861 77.7776 78.3035C74.4144 67.621 74.0989 56.2137 76.8664 45.3621C79.634 34.5104 85.375 24.6438 93.4453 16.8696C101.516 9.0954 111.596 3.72134 122.554 1.35055" fill="#AB1216"/>
<path d="M126.46 60.9765C125.942 61.3488 125.715 62.179 126.203 62.6629C126.979 63.4782 128.194 63.4074 129.23 63.4335C134.952 63.3702 140.677 63.4931 146.376 63.3739C147.357 63.3739 148.028 62.5996 148.468 61.8216C147.897 61.2111 147.256 60.4963 146.35 60.5112C140.636 60.4405 134.922 60.5112 129.204 60.474C128.272 60.474 127.243 60.4181 126.438 60.9765M161.696 55.7648C157.082 56.6843 152.247 59.0556 150.272 63.5824C153.79 63.7462 157.399 63.5824 160.768 62.4656C163.232 61.5498 164.514 58.7616 164.425 56.2599C163.94 55.1766 162.591 55.6159 161.696 55.7685M109.843 55.7685C109.362 58.5121 110.853 61.6317 113.571 62.5289C116.884 63.5638 120.403 63.7425 123.851 63.5638C123.058 61.9169 121.924 60.4567 120.525 59.2792C119.126 58.1017 117.492 57.2338 115.733 56.7327C113.828 56.1445 111.864 55.2176 109.828 55.7685M119.24 43.2976C118.353 45.5907 117.25 47.8541 116.926 50.3148C117.388 51.0594 118.416 50.8881 119.162 50.9775C130.96 50.9775 142.761 50.9775 154.573 50.9775C155.526 50.9539 156.473 50.8291 157.399 50.6052C156.76 47.9041 155.849 45.2747 154.678 42.7578C153.559 40.5577 150.917 39.7462 148.613 39.7164C140.897 39.7015 133.184 39.7015 125.473 39.7164C123.001 39.7164 120.15 40.7922 119.237 43.2901M117.198 41.2762C118.528 38.6964 121.652 37.8178 124.354 37.7098C131.69 37.6652 139.026 37.7099 146.347 37.6912C148.441 37.6912 150.581 37.5535 152.624 38.1268C154.286 38.5661 155.941 39.4707 156.821 41.0007C158.334 43.8932 159.221 47.0835 160.832 49.9351C161.506 48.688 161.708 47.2846 162.069 45.937C163.15 44.6601 165.025 44.9132 166.542 44.8946C167.66 44.8537 169.23 45.2892 169.278 46.6517C169.066 47.5638 168.015 47.7685 167.277 48.07C165.61 48.5763 164.183 49.5889 162.759 50.5531C165.174 52.3474 167.291 55.0203 167.265 58.151C167.329 64.0217 167.265 69.8961 167.291 75.7667L166.222 75.8896C166.203 77.4121 166.404 78.9682 166.061 80.4684C165.39 81.5853 163.888 81.3693 162.777 81.4066C159.557 81.2614 156.307 81.682 153.112 81.172C151.647 80.6099 152.162 78.7039 152.076 77.494C149.877 77.5313 147.521 77.0808 145.985 75.3758C140.066 75.3485 134.145 75.3485 128.224 75.3758C126.673 77.0622 124.325 77.535 122.125 77.4978C122.062 78.5736 122.319 79.7984 121.689 80.7551C121.193 81.4438 120.258 81.3023 119.524 81.3656C116.303 81.4252 113.075 81.4587 109.858 81.3321C109.395 81.3676 108.936 81.2215 108.579 80.9247C108.222 80.6279 107.995 80.2038 107.946 79.7425C107.793 78.4433 108.006 77.1367 107.972 75.8337L106.887 75.763C106.94 70.514 106.887 65.2651 106.91 60.0124C106.91 58.5456 106.802 57.0342 107.346 55.6308C108.091 53.5275 109.698 51.8895 111.427 50.5493C109.922 49.3893 108.234 48.4862 106.433 47.8765C105.687 47.6717 104.729 47.1319 104.908 46.2199C105.542 44.9988 107.115 44.7643 108.36 44.835C109.523 44.9951 110.969 44.7792 111.882 45.6838C112.717 46.9719 112.344 48.7364 113.418 49.9351C114.808 47.1021 115.822 44.1054 117.201 41.2724M109.594 31.9025C118.081 20.3622 132.488 13.6614 146.749 13.9183C152.874 13.9844 158.925 15.2658 164.55 17.6879C170.174 20.11 175.261 23.6245 179.514 28.0272C189.12 37.7843 193.913 51.9788 192.225 65.5591C190.845 78.5885 183.469 90.7914 172.689 98.233C167.298 101.982 161.172 104.545 154.716 105.754C148.259 106.963 141.619 106.79 135.235 105.247C125.044 102.76 115.647 96.8035 109.385 88.3531C113.44 92.1837 118.01 95.5825 123.225 97.6597C132.725 101.559 143.354 101.708 152.961 98.078C162.567 94.4475 170.434 87.3082 174.97 78.1045C178.893 70.2005 180.11 61.2286 178.433 52.567C176.305 41.1905 168.95 30.9755 158.912 25.2128C151.557 20.9683 143.05 19.1443 134.598 19.9996C126.147 20.8549 118.179 24.3461 111.826 29.9779C111.081 30.6368 110.38 31.3106 109.612 31.9323" fill="#0B1017"/>
</svg>
