<svg width="16" height="20" viewBox="0 0 16 20" fill="none" xmlns="http://www.w3.org/2000/svg">
<path d="M8 0C3.86441 0 0.5 3.31421 0.5 7.38809C0.5 8.72925 1.11059 10.1717 1.13618 10.2325C1.33338 10.6936 1.7225 11.4098 2.00309 11.8296L7.14544 19.505C7.35588 19.8196 7.66735 20 8 20C8.33265 20 8.64412 19.8196 8.85456 19.5054L13.9974 11.8296C14.2784 11.4098 14.6671 10.6936 14.8643 10.2325C14.8899 10.1721 15.5 8.72968 15.5 7.38809C15.5 3.31421 12.1356 0 8 0ZM14.0507 9.89526C13.8747 10.3086 13.5125 10.9748 13.2606 11.3512L8.11779 19.0269C8.01632 19.1786 7.98412 19.1786 7.88265 19.0269L2.73985 11.3512C2.48794 10.9748 2.12574 10.3081 1.94971 9.89483C1.94221 9.87701 1.38235 8.54933 1.38235 7.38809C1.38235 3.79357 4.35103 0.869187 8 0.869187C11.649 0.869187 14.6176 3.79357 14.6176 7.38809C14.6176 8.55106 14.0565 9.88223 14.0507 9.89526Z" fill="#464447"/>
<path d="M7.9994 3.47656C5.80984 3.47656 4.02881 5.23145 4.02881 7.38791C4.02881 9.54436 5.80984 11.2992 7.9994 11.2992C10.189 11.2992 11.97 9.54436 11.97 7.38791C11.97 5.23145 10.189 3.47656 7.9994 3.47656ZM7.9994 10.4301C6.2969 10.4301 4.91116 9.06544 4.91116 7.38791C4.91116 5.71037 6.2969 4.34575 7.9994 4.34575C9.7019 4.34575 11.0876 5.71037 11.0876 7.38791C11.0876 9.06544 9.7019 10.4301 7.9994 10.4301Z" fill="#464447"/>
</svg>
