<svg width="22" height="20" viewBox="0 0 22 20" fill="none" xmlns="http://www.w3.org/2000/svg">
<path d="M1.50024 10L3.50022 11" stroke="#AB1216" stroke-linecap="round" stroke-linejoin="round"/>
<path d="M20.5003 10.5L18.5003 11" stroke="#AB1216" stroke-linecap="round" stroke-linejoin="round"/>
<path d="M6.99957 15.5L7.24524 14.8858C7.61057 13.9725 7.79324 13.5158 8.17417 13.2579C8.55508 13 9.04695 13 10.0306 13H11.9684C12.9521 13 13.444 13 13.8249 13.2579C14.2058 13.5158 14.3885 13.9725 14.7538 14.8858L14.9995 15.5" stroke="#AB1216" stroke-linecap="round" stroke-linejoin="round"/>
<path d="M1.00012 15.0001V17.8821C1.00012 18.2608 1.24087 18.6071 1.62199 18.7765C1.86929 18.8864 2.10549 19.0001 2.39068 19.0001H4.1095C4.3947 19.0001 4.6309 18.8864 4.87819 18.7765C5.25932 18.6071 5.50007 18.2608 5.50007 17.8821V16.0001" stroke="#AB1216" stroke-linecap="round" stroke-linejoin="round"/>
<path d="M16.4998 16V17.882C16.4998 18.2607 16.7406 18.607 17.1217 18.7763C17.369 18.8862 17.6052 18.9999 17.8904 18.9999H19.6092C19.8944 18.9999 20.1306 18.8862 20.3779 18.7763C20.759 18.607 20.9998 18.2607 20.9998 17.882V15" stroke="#AB1216" stroke-linecap="round" stroke-linejoin="round"/>
<path d="M18.9995 6.49999L19.9994 6" stroke="#AB1216" stroke-linecap="round" stroke-linejoin="round"/>
<path d="M3.00035 6.49999L2.00036 6" stroke="#AB1216" stroke-linecap="round" stroke-linejoin="round"/>
<path d="M3.50022 6.99992L4.58851 3.73505C5.02852 2.41503 5.24852 1.75502 5.77229 1.37751C6.29606 1 6.99177 1 8.3832 1H13.6171C15.0085 1 15.7042 1 16.228 1.37751C16.7518 1.75502 16.9718 2.41503 17.4117 3.73505L18.5 6.99992" stroke="#AB1216" stroke-linejoin="round"/>
<path d="M3.50009 7H18.4999C19.4571 8.01349 20.9999 9.42487 20.9999 10.9995V14.4701C20.9999 15.0406 20.6204 15.5207 20.1167 15.5874L16.9999 15.9999H5.00007L1.88327 15.5874C1.37967 15.5207 1.00012 15.0406 1.00012 14.4701V10.9995C1.00012 9.42487 2.54289 8.01349 3.50009 7Z" stroke="#AB1216" stroke-linejoin="round"/>
</svg>
