<svg width="22" height="26" viewBox="0 0 22 26" fill="none" xmlns="http://www.w3.org/2000/svg">
<path fill-rule="evenodd" clip-rule="evenodd" d="M0.0905151 11.5779C0.0905151 5.61398 4.82847 0.635986 10.8451 0.635986C16.8618 0.635986 21.5986 5.61398 21.5986 11.5779C21.5986 16.1162 19.8522 19.7224 16.3099 22.5602C14.863 23.731 13.2254 24.6439 11.4688 25.259C11.0643 25.398 10.6249 25.398 10.2204 25.259C8.46372 24.6439 6.82609 23.731 5.37921 22.5602C1.83808 19.7224 0.0905151 16.1162 0.0905151 11.5779Z" fill="#CB2229"/>
<path fill-rule="evenodd" clip-rule="evenodd" d="M19.4953 15.4108C18.8593 17.745 17.1274 19.8324 15.3036 21.2928C14.0044 22.344 12.5347 23.1646 10.9582 23.719C10.8856 23.7447 10.8064 23.7447 10.7339 23.719C9.15761 23.1641 7.68795 22.3435 6.3885 21.2928C4.62411 19.8784 2.94496 17.8784 2.26186 15.6351C1.96574 14.6592 1.71112 12.6066 1.71112 11.5836C1.71112 6.50915 5.73008 2.26025 10.8494 2.26025C15.2755 2.26025 18.8783 5.43796 19.7734 9.57806C20.147 11.3256 19.9585 13.7182 19.4953 15.4108Z" fill="white"/>
<path d="M10.8466 20.3102C15.541 20.3102 19.3467 16.4238 19.3467 11.6296C19.3467 6.83543 15.541 2.94897 10.8466 2.94897C6.15216 2.94897 2.34656 6.83543 2.34656 11.6296C2.34656 16.4238 6.15216 20.3102 10.8466 20.3102Z" fill="black"/>
<path fill-rule="evenodd" clip-rule="evenodd" d="M2.56854 13.5331C2.56854 17.5902 6.74341 21.6506 10.8465 23.0494C14.9485 21.6506 19.1233 17.5902 19.1233 13.5331C19.1233 8.74017 2.56854 9.00264 2.56854 13.5331Z" fill="white"/>
<path fill-rule="evenodd" clip-rule="evenodd" d="M13.1819 19.2815C13.1819 19.1693 13.2616 19.0942 13.3524 19.1402L15.0349 20.687C15.349 20.4312 15.653 20.162 15.9435 19.8816C14.7096 18.7723 12.1679 16.5166 11.3738 15.8862C11.1707 15.8483 10.9609 15.8884 10.786 15.9984C10.4338 16.2126 10.3172 16.4773 9.7193 16.8194C9.39402 17.0056 8.9016 17.147 8.64137 16.8935C8.49556 16.7521 8.47873 16.5424 8.55949 16.3326C8.59414 16.246 8.635 16.1621 8.68176 16.0814C9.09565 15.3702 9.80343 14.1689 10.2521 13.4881L7.92126 13.4118C7.88002 13.4175 7.84118 13.4346 7.80909 13.4611L6.93082 10.4326C4.44631 10.9609 2.57312 12.003 2.57312 13.5251C2.57312 13.5823 2.57312 13.6372 2.57312 13.6956C2.57312 13.7068 2.57312 13.718 2.57312 13.7303C2.57312 13.7853 2.57312 13.8425 2.58209 13.8952C2.58209 13.9053 2.58209 13.9154 2.58209 13.9255C2.58209 13.976 2.58995 14.0276 2.59443 14.0781C2.59443 14.0859 2.59443 14.0938 2.59443 14.1016C2.59443 14.1566 2.60565 14.2138 2.61238 14.2665C2.61238 14.28 2.61238 14.2923 2.61238 14.3046C2.61911 14.36 2.62696 14.4149 2.63593 14.4695V14.4897C2.87709 16.0208 3.65217 17.4577 4.64485 18.6825C5.15526 19.3111 5.72139 19.8922 6.33633 20.4189C6.45972 20.5243 6.5846 20.6283 6.71098 20.7307L6.77379 20.6185L6.74126 20.7531L6.7693 20.7756L6.91063 20.8877L6.94092 20.9124L7.08225 21.0246L7.11366 21.047L7.25835 21.1592L7.28639 21.1794C7.33575 21.2153 7.3851 21.2512 7.43558 21.2859L7.4625 21.3061L7.61504 21.4116L7.64309 21.4306L7.79675 21.5338L7.8248 21.5529L7.98071 21.6538L8.00763 21.6707L8.16579 21.7705L8.19158 21.7862L8.35311 21.8849L8.37554 21.8984L8.54042 21.996L8.56061 22.0072C8.6167 22.0397 8.67278 22.0722 8.72999 22.1036L8.74569 22.1126L8.91618 22.2057L8.93077 22.2136L9.10463 22.3055L9.11697 22.3123L9.29307 22.402L9.30877 22.4099L9.48487 22.4951L9.49833 22.5029L9.67556 22.586L9.69014 22.5927L9.86737 22.6723L9.88195 22.6779L10.0603 22.7553H10.0738L10.2543 22.8294H10.2656C10.3261 22.8529 10.3867 22.8776 10.4484 22.9H10.4562C10.5179 22.9236 10.5796 22.9471 10.6413 22.9684L10.8309 23.0346C11.3619 22.8526 11.8798 22.6345 12.381 22.3818C11.9447 21.9982 11.3861 21.5204 11.2403 21.3723C11.1371 21.2657 11.2863 21.0773 11.4074 21.1895C11.551 21.3185 12.0804 21.8243 12.5919 22.2775C12.9523 22.0891 13.3068 21.8838 13.6553 21.6617C13.0944 21.1188 12.344 20.4279 12.2229 20.2899C12.169 20.2271 12.086 20.1082 12.1713 20.033C12.1867 20.0158 12.2057 20.0022 12.2269 19.9931C12.2482 19.984 12.2712 19.9797 12.2943 19.9804C12.3174 19.9812 12.34 19.987 12.3606 19.9974C12.3812 20.0079 12.3993 20.0227 12.4136 20.0409C12.6581 20.2876 13.3625 20.9797 13.8964 21.4991C14.1955 21.2972 14.4913 21.0837 14.7837 20.8586C14.1275 20.2103 13.1696 19.3645 13.1662 19.2658L13.1819 19.2815Z" fill="black"/>
<path fill-rule="evenodd" clip-rule="evenodd" d="M7.43922 20.9564L7.55139 20.8442L8.23225 20.1095C8.28833 20.0434 8.35002 19.9974 8.40835 19.9278C8.50518 19.8248 8.56887 19.6951 8.59118 19.5554C8.60057 19.4725 8.59253 19.3886 8.56759 19.309C8.54264 19.2293 8.50134 19.1558 8.44632 19.0931C8.3913 19.0303 8.32378 18.9798 8.24809 18.9447C8.17241 18.9096 8.09022 18.8907 8.00679 18.8892C7.89584 18.891 7.78678 18.9182 7.688 18.9688C7.58921 19.0193 7.50334 19.0919 7.43698 19.1808L7.34276 19.2851L7.2362 19.3973L6.55535 20.1309C6.49926 20.1982 6.43757 20.243 6.37924 20.3126C6.35657 20.3384 6.33523 20.3653 6.31531 20.3933C6.6204 20.658 6.93784 20.9115 7.26537 21.1505C7.29573 21.1221 7.32421 21.0917 7.35061 21.0596L7.44483 20.9553L7.43922 20.9564ZM7.36632 21.229C7.37957 21.211 7.3938 21.1938 7.40894 21.1774C7.46727 21.1112 7.52896 21.0652 7.58504 20.9957L8.2659 20.261L8.37807 20.1488L8.47229 20.0445C8.53847 19.9554 8.6243 19.8827 8.72312 19.8321C8.82195 19.7815 8.9311 19.7544 9.0421 19.7529C9.12552 19.754 9.20778 19.7727 9.28355 19.8076C9.35932 19.8425 9.42692 19.893 9.48199 19.9557C9.53706 20.0183 9.57837 20.0919 9.60326 20.1715C9.62815 20.2512 9.63606 20.3351 9.62649 20.418C9.60417 20.5576 9.54049 20.6874 9.44366 20.7904C9.38533 20.8566 9.32364 20.9026 9.26755 20.9721L8.5867 21.7068L8.48014 21.819L8.40274 21.9042C8.05278 21.6956 7.7073 21.469 7.37192 21.2312L7.36632 21.229ZM8.53286 21.985L9.20586 21.257L9.31242 21.1448L9.40664 21.0405C9.47288 20.9515 9.55873 20.8788 9.65754 20.8283C9.75635 20.7777 9.86547 20.7505 9.97645 20.7489C10.0599 20.7501 10.1422 20.7687 10.218 20.8037C10.2939 20.8386 10.3615 20.889 10.4167 20.9517C10.4718 21.0143 10.5133 21.0878 10.5383 21.1675C10.5633 21.2471 10.5714 21.3311 10.562 21.414C10.5395 21.5542 10.4754 21.6843 10.378 21.7876C10.3197 21.8526 10.258 21.8997 10.2019 21.9693L9.64107 22.5694C9.26643 22.3955 8.89404 22.2003 8.52725 21.9883L8.53286 21.985ZM9.7925 22.6333C10.1425 22.7903 10.4939 22.9291 10.8469 23.0495C10.959 23.0124 11.0634 22.9732 11.171 22.9373C11.2002 22.9092 11.2282 22.8823 11.2563 22.8509C11.3537 22.7477 11.4178 22.6175 11.4402 22.4774C11.4496 22.3945 11.4416 22.3105 11.4165 22.2308C11.3915 22.1512 11.3501 22.0777 11.2949 22.015C11.2398 21.9524 11.1721 21.9019 11.0963 21.867C11.0205 21.8321 10.9382 21.8134 10.8547 21.8122C10.7437 21.8139 10.6346 21.841 10.5358 21.8916C10.437 21.9422 10.3512 22.0148 10.2849 22.1039L10.1907 22.2082L10.0841 22.3204L9.7925 22.6333Z" fill="white"/>
<path fill-rule="evenodd" clip-rule="evenodd" d="M10.4563 14.6387L6.72675 14.365L10.7233 14.3044L10.4563 14.6387Z" fill="white"/>
<path fill-rule="evenodd" clip-rule="evenodd" d="M18.8709 14.5882C18.6219 15.9645 17.7773 17.7289 16.7397 18.698C17.4565 17.2735 18.1979 16.2304 18.4155 14.5479L18.8709 14.5882Z" fill="black"/>
<path fill-rule="evenodd" clip-rule="evenodd" d="M18.935 14.9823C18.9178 15.0042 18.8991 15.0248 18.879 15.044C18.8103 15.1164 18.7352 15.1825 18.6546 15.2414C18.4067 15.4018 17.9816 15.3771 17.6967 15.3771H16.916C16.8778 15.3781 16.8397 15.3716 16.8039 15.3581C16.6163 15.288 16.4557 15.1604 16.3451 14.9935H15.9368C15.8787 14.9938 15.8209 14.9855 15.7652 14.9688L14.7254 14.6593L6.84676 13.6587L5.94942 13.9605C5.88767 13.9815 5.82285 13.9921 5.75761 13.9919H5.34932C5.23869 14.1587 5.07811 14.2863 4.89056 14.3564C4.85475 14.37 4.81666 14.3764 4.77839 14.3755H4.00219C3.71728 14.3755 3.29217 14.399 3.04428 14.2398C2.96341 14.1808 2.8883 14.1143 2.81995 14.0412C2.79983 14.0224 2.78109 14.0022 2.76386 13.9807C2.48793 13.9459 2.54738 14.5505 2.4554 14.2499C2.12563 13.1697 1.82054 10.2948 2.36791 9.35711C2.51457 9.11478 2.69768 8.89649 2.9108 8.70991C2.97249 8.65382 3.03867 8.59774 3.10597 8.54278C2.97039 8.38152 2.87779 8.18859 2.83677 7.98194C2.7246 7.48279 3.09588 7.06329 3.59166 7.03637H4.46544C4.57398 7.03447 4.68183 7.0539 4.78288 7.09357C4.85224 7.1208 4.91694 7.15864 4.97468 7.20574C5.11377 7.00721 5.25398 6.80979 5.39755 6.61462C5.56244 6.39028 5.73406 6.16595 5.90904 5.95283C6.05494 5.76604 6.21956 5.59465 6.40033 5.44135C6.51323 5.34626 6.63492 5.26213 6.76375 5.19009C7.0924 5.01736 7.47041 5.00053 7.83383 4.98819C9.74067 4.92313 11.6475 4.94669 13.5544 4.98034C13.8218 4.97978 14.0892 4.99326 14.3552 5.02072C14.5592 5.04058 14.7577 5.09801 14.9408 5.19009C15.0698 5.26186 15.1915 5.34601 15.3042 5.44135C15.4849 5.59465 15.6496 5.76604 15.7955 5.95283C15.9738 6.16707 16.1421 6.39028 16.307 6.61462C16.4505 6.80979 16.5907 7.00721 16.7298 7.20574C16.7876 7.15864 16.8523 7.1208 16.9216 7.09357C17.0227 7.05399 17.1305 7.03456 17.2391 7.03637H18.1106C18.6064 7.06329 18.9754 7.48504 18.8655 7.98194C18.8245 8.18859 18.7319 8.38152 18.5963 8.54278C18.6636 8.59774 18.7298 8.65494 18.7915 8.70991C19.0046 8.89649 19.1877 9.11478 19.3344 9.35711C19.6596 9.91795 19.6092 11.1899 19.58 11.8427C19.5564 12.2095 19.2828 14.9386 18.935 14.9823Z" fill="white"/>
<path fill-rule="evenodd" clip-rule="evenodd" d="M18.9638 13.9008C18.9831 13.9251 19.0037 13.9483 19.0255 13.9704C19.1466 14.096 19.2936 14.2351 19.2352 14.4247C19.1724 14.631 18.9436 14.6658 18.7507 14.6658H15.9375C15.9109 14.666 15.8845 14.6622 15.859 14.6546L14.6251 14.2867C14.5665 14.2711 14.5155 14.2345 14.482 14.1838C14.4485 14.1332 14.4348 14.072 14.4434 14.0119C14.4544 13.9513 14.4866 13.8967 14.5344 13.8578C14.5821 13.8189 14.6421 13.7984 14.7037 13.7999H18.7529C18.7935 13.7989 18.8338 13.8076 18.8704 13.8251C18.9071 13.8426 18.9391 13.8686 18.9638 13.9008Z" fill="black"/>
<path fill-rule="evenodd" clip-rule="evenodd" d="M2.94062 13.798H6.85078C6.91148 13.7966 6.97075 13.8166 7.01814 13.8545C7.06553 13.8925 7.09802 13.9459 7.10989 14.0055C7.11959 14.0646 7.10756 14.1253 7.07601 14.1762C7.04446 14.2271 6.99553 14.2649 6.93827 14.2825L5.84127 14.6493C5.81316 14.6592 5.78356 14.6641 5.75378 14.6639H2.94062C2.7477 14.6639 2.51887 14.6291 2.45606 14.4228C2.39773 14.2332 2.54467 14.0941 2.66581 13.9685C2.68755 13.9464 2.70814 13.9232 2.7275 13.8989C2.75245 13.8664 2.78479 13.8402 2.82185 13.8227C2.85892 13.8051 2.89963 13.7967 2.94062 13.798Z" fill="black"/>
<path fill-rule="evenodd" clip-rule="evenodd" d="M4.21834 8.50723H3.76967C3.39279 8.50723 3.22117 8.21896 3.15387 7.90937C3.08881 7.61662 3.30081 7.37882 3.60254 7.362H4.46511C4.53175 7.36021 4.59808 7.37165 4.66028 7.39565C4.7259 7.42583 4.78452 7.46934 4.83242 7.52341C4.88031 7.57748 4.91642 7.64093 4.93845 7.70972C5.00591 7.88908 5.06284 8.07222 5.10895 8.25821C5.1195 8.29746 5.11968 8.33877 5.10945 8.37809C5.09923 8.41742 5.07895 8.45342 5.05062 8.48255L4.78366 8.76409C4.75535 8.79443 4.72028 8.81766 4.6813 8.83189C4.64232 8.84612 4.60053 8.85094 4.55933 8.84597C4.51882 8.84308 4.47958 8.83059 4.44486 8.80952C4.41014 8.78846 4.38094 8.75943 4.35967 8.72483L4.21834 8.50723Z" fill="black"/>
<path fill-rule="evenodd" clip-rule="evenodd" d="M4.85002 8.32037C4.67616 7.68775 4.63466 7.61035 4.4608 7.61035H3.62403C3.62403 7.61035 3.36156 7.62493 3.41315 7.85824C3.46475 8.09155 3.56234 8.25756 3.77209 8.25756H4.3677L4.58418 8.60303L4.85002 8.32037Z" fill="#952327"/>
<path fill-rule="evenodd" clip-rule="evenodd" d="M17.4765 8.50684L17.3363 8.73118C17.315 8.76577 17.2858 8.7948 17.2511 8.81587C17.2164 8.83694 17.1772 8.84943 17.1366 8.85232C17.0954 8.85729 17.0537 8.85247 17.0147 8.83824C16.9757 8.82401 16.9406 8.80078 16.9123 8.77044L16.6454 8.4889C16.617 8.45977 16.5967 8.42377 16.5865 8.38444C16.5763 8.34512 16.5765 8.3038 16.587 8.26456C16.6331 8.07857 16.6901 7.89542 16.7575 7.71606C16.7796 7.64728 16.8157 7.58383 16.8636 7.52976C16.9115 7.47569 16.9701 7.43218 17.0357 7.40199C17.0979 7.378 17.1642 7.36656 17.2309 7.36834H18.0833C18.3884 7.38517 18.6004 7.62296 18.532 7.91572C18.4636 8.2253 18.292 8.51357 17.9151 8.51357L17.4765 8.50684Z" fill="black"/>
<path fill-rule="evenodd" clip-rule="evenodd" d="M16.8413 8.32037C17.0152 7.68775 17.0567 7.61035 17.2305 7.61035H18.0673C18.0673 7.61035 18.3298 7.62493 18.2782 7.85824C18.2266 8.09155 18.129 8.25756 17.9192 8.25756H17.3236L17.1083 8.60303L16.8413 8.32037Z" fill="#952327"/>
<path fill-rule="evenodd" clip-rule="evenodd" d="M2.72546 11.1177C2.72546 13.803 2.81295 14.587 3.04402 14.8057C3.27508 15.0245 3.22573 15.0491 4.00193 15.0491H4.77813C4.86877 15.0123 4.94999 14.9556 5.0158 14.8832C5.08161 14.8108 5.13033 14.7245 5.15837 14.6308C5.24811 14.3133 5.15837 12.4895 5.15837 12.4895L2.72546 11.1177Z" fill="black"/>
<path fill-rule="evenodd" clip-rule="evenodd" d="M18.9662 11.1177C18.9662 13.803 18.8787 14.587 18.6487 14.8057C18.4188 15.0245 18.4659 15.0491 17.6897 15.0491H16.9157C16.8251 15.0123 16.7439 14.9556 16.6781 14.8832C16.6123 14.8108 16.5635 14.7245 16.5355 14.6308C16.4458 14.3133 16.5355 12.4895 16.5355 12.4895L18.9662 11.1177Z" fill="black"/>
<path fill-rule="evenodd" clip-rule="evenodd" d="M16.8291 7.94239H16.8639C16.9257 7.9325 16.989 7.94525 17.0422 7.97828L17.3081 8.13644C17.7625 8.35039 18.1847 8.62716 18.5621 8.95862C18.7502 9.12253 18.9121 9.31432 19.0422 9.52731C19.3192 10.004 19.2665 11.2861 19.2441 11.8335C19.2104 12.5962 19.1454 13.3747 19.0523 14.1329C19.0445 14.1961 19.0133 14.2542 18.965 14.2957C18.9167 14.3372 18.8546 14.3591 18.7909 14.3572L16.2649 14.3471L10.8461 14.309L5.42616 14.337L2.90127 14.3471C2.8374 14.3493 2.77504 14.3275 2.72646 14.286C2.67789 14.2444 2.64661 14.1862 2.6388 14.1228C2.54682 13.3646 2.48177 12.5861 2.44699 11.8234C2.42344 11.276 2.37184 9.99393 2.64889 9.51722C2.77891 9.30423 2.94082 9.11244 3.12897 8.94853C3.50639 8.61706 3.92854 8.34029 4.383 8.12634L4.64884 7.96818C4.70207 7.93525 4.76536 7.92251 4.82719 7.93229H4.86196C5.1177 7.54868 5.38466 7.16731 5.65723 6.79491C5.81875 6.57619 5.98363 6.35858 6.15749 6.14883C6.28897 5.98386 6.43583 5.83175 6.59607 5.69455C6.69255 5.61271 6.79658 5.54023 6.90677 5.47807C7.17934 5.33449 7.53042 5.32328 7.83552 5.31318C9.73563 5.24925 11.6357 5.27168 13.5359 5.30533C13.7917 5.30511 14.0474 5.31784 14.302 5.34347C14.4667 5.35887 14.6271 5.40449 14.7753 5.47807C14.8855 5.54023 14.9895 5.61271 15.086 5.69455C15.2499 5.83479 15.4002 5.99028 15.5347 6.15892C15.7074 6.36868 15.8712 6.58628 16.0338 6.80501C16.3064 7.1774 16.579 7.55877 16.8291 7.94239Z" fill="black"/>
<path fill-rule="evenodd" clip-rule="evenodd" d="M13.5348 5.55987C14.5106 5.57782 14.5858 5.62268 14.9212 5.89637C15.4405 6.31139 16.6968 8.22497 16.6968 8.22497L16.9021 8.1958L17.1802 8.36069C17.1802 8.36069 18.3804 8.91592 18.8123 9.6551C19.2441 10.3943 18.791 14.1115 18.791 14.1115L16.2661 14.1014L10.8461 14.0734L5.42508 14.1014L2.89907 14.1115C2.89907 14.1115 2.4504 10.3943 2.87888 9.6551C3.30736 8.91592 4.51092 8.36069 4.51092 8.36069L4.78909 8.1958L4.99436 8.22497C4.99436 8.22497 6.25176 6.31139 6.76997 5.89637C7.06609 5.6597 7.15919 5.59688 7.84902 5.57333C9.75474 5.49706 11.6313 5.52061 13.5348 5.55987Z" fill="#CB2229"/>
<path fill-rule="evenodd" clip-rule="evenodd" d="M5.81879 14.0845H5.42508L2.89907 14.0946C2.89907 14.0946 2.4504 10.3774 2.87888 9.6382C3.00698 9.43138 3.16757 9.24655 3.35447 9.09082C4.74983 9.13344 5.89955 9.67073 6.27082 10.5546C6.65331 11.4777 6.68808 11.4777 6.39196 12.3022C6.09584 13.1266 5.81094 13.9723 5.81094 13.9723L5.81879 14.0845Z" fill="#952327"/>
<path fill-rule="evenodd" clip-rule="evenodd" d="M10.9488 8.14564H10.7469C9.75311 8.13218 7.80588 8.09517 6.97921 8.2365C6.01457 8.4025 5.48065 8.26566 5.48065 8.26566C5.48065 8.26566 6.49689 6.75813 6.79413 6.36891C6.99056 6.12988 7.272 5.9763 7.5793 5.94043H14.1288C14.4361 5.9763 14.7175 6.12988 14.9139 6.36891C15.2112 6.75813 16.2274 8.26566 16.2274 8.26566C16.2274 8.26566 15.6935 8.4025 14.7289 8.2365C13.8876 8.09517 11.9426 8.13218 10.9488 8.14564Z" fill="#E54559"/>
<path fill-rule="evenodd" clip-rule="evenodd" d="M10.9488 12.5303L14.9532 12.5392C15.0967 12.5774 15.3536 12.6851 15.5275 13.1427C15.7013 13.6004 15.8359 13.8718 15.1472 13.8527C14.6761 13.8393 12.3576 13.8438 10.9488 13.8527H10.7469C9.33806 13.8527 7.01956 13.8438 6.54846 13.8527C5.85975 13.8718 5.99323 13.5992 6.16821 13.1427C6.34319 12.6862 6.59894 12.5819 6.74251 12.5392L10.7469 12.5303H10.9522H10.9488Z" fill="black"/>
<path fill-rule="evenodd" clip-rule="evenodd" d="M10.9488 8.02797H10.7469C9.75311 8.01451 7.80588 7.97749 6.97921 8.11882C6.01457 8.28483 5.48065 8.14799 5.48065 8.14799C5.48065 8.14799 6.49689 6.64046 6.79413 6.25123C6.99056 6.01221 7.272 5.85862 7.5793 5.82275H14.1288C14.4361 5.85862 14.7175 6.01221 14.9139 6.25123C15.2112 6.64046 16.2274 8.14799 16.2274 8.14799C16.2274 8.14799 15.6935 8.28483 14.7289 8.11882C13.8876 7.97973 11.9426 8.01675 10.9488 8.02797Z" fill="black"/>
<path fill-rule="evenodd" clip-rule="evenodd" d="M3.89515 12.0232C3.67979 12.0232 3.51603 12.0232 3.42293 12.51C3.32983 12.9968 3.29954 13.6193 3.48462 13.6777C3.66969 13.736 4.9428 13.8616 5.27145 13.6283C5.6001 13.395 6.03082 12.4606 5.98932 12.335C5.94781 12.2094 5.4453 12.0815 3.89515 12.0232Z" fill="black"/>
<path fill-rule="evenodd" clip-rule="evenodd" d="M2.94039 14.0474C2.80691 14.2223 2.49172 14.4175 2.94039 14.4175H5.75355L6.85055 14.0496L2.94039 14.0474Z" fill="#CB2229"/>
<path fill-rule="evenodd" clip-rule="evenodd" d="M18.751 14.0474C18.8845 14.2223 19.1996 14.4175 18.751 14.4175H15.9378L14.704 14.0496L18.751 14.0474Z" fill="#CB2229"/>
<path fill-rule="evenodd" clip-rule="evenodd" d="M5.08982 8.12646C5.28723 8.91163 6.05109 9.48481 6.74092 9.98956C6.83795 10.0491 6.92789 10.1194 7.009 10.1993C6.7807 10.1155 6.56427 10.0024 6.36516 9.86281C5.66523 9.41414 5.04046 8.89817 4.81725 8.16348C4.81555 8.14741 4.81714 8.13117 4.82193 8.11574C4.82672 8.10031 4.83461 8.08601 4.8451 8.07373C4.8556 8.06145 4.86849 8.05144 4.88299 8.0443C4.89748 8.03717 4.91328 8.03306 4.92942 8.03224C4.9631 8.02484 4.99835 8.03044 5.02809 8.04791C5.05783 8.06538 5.07987 8.09343 5.08982 8.12646Z" fill="black"/>
<path fill-rule="evenodd" clip-rule="evenodd" d="M5.57998 12.4227L5.65176 12.4362L5.63269 12.5708C5.63269 12.5708 4.9238 12.5079 3.76062 12.4171L3.77857 12.3049L3.79203 12.2903C3.87503 12.2601 5.35003 12.4025 5.57998 12.4227Z" fill="#6D6E70"/>
<path fill-rule="evenodd" clip-rule="evenodd" d="M3.70285 12.6201C4.79536 12.7054 5.47285 12.7648 5.56482 12.7727C5.54239 12.8187 5.51996 12.8635 5.49528 12.9095C5.30235 12.8927 4.65066 12.8366 3.68378 12.7614L3.70285 12.6201Z" fill="#6D6E70"/>
<path fill-rule="evenodd" clip-rule="evenodd" d="M3.63182 12.9626C4.52916 13.0322 5.13823 13.0849 5.38163 13.1051C5.35471 13.1488 5.32443 13.196 5.29302 13.2408C5.01373 13.2161 4.42821 13.1679 3.62061 13.1051C3.62397 13.0535 3.62846 13.0053 3.63182 12.9626Z" fill="#6D6E70"/>
<path fill-rule="evenodd" clip-rule="evenodd" d="M3.61281 13.3135C4.30712 13.3673 4.82758 13.4111 5.12707 13.4357L5.11361 13.447C4.97517 13.5073 4.82605 13.5393 4.67503 13.5412C4.39461 13.5176 4.03792 13.4896 3.61954 13.4571C3.61484 13.4093 3.6126 13.3614 3.61281 13.3135Z" fill="#6D6E70"/>
<path fill-rule="evenodd" clip-rule="evenodd" d="M12.4518 6.83097C12.3743 6.98186 12.327 7.14648 12.3128 7.31553C11.1776 7.28749 10.5181 7.28749 9.37958 7.31553C9.36531 7.14648 9.31806 6.98186 9.24049 6.83097C9.2005 6.77598 9.14584 6.73335 9.08277 6.70796C9.01969 6.68257 8.95074 6.67545 8.8838 6.6874L8.67293 6.32397H6.97695C6.62699 6.79844 5.8407 7.94816 5.8407 7.94816C5.8407 7.94816 6.3376 8.07379 7.23718 7.92124C7.98422 7.79561 13.7081 7.79561 14.4552 7.92124C15.3525 8.07379 15.8516 7.94816 15.8516 7.94816C15.8516 7.94816 15.0665 6.79844 14.7154 6.32397H13.0194L12.8085 6.6874C12.7416 6.67545 12.6727 6.68257 12.6096 6.70796C12.5465 6.73335 12.4918 6.77598 12.4518 6.83097Z" fill="#1E1E1E"/>
<path fill-rule="evenodd" clip-rule="evenodd" d="M6.29237 11.2148C5.16173 11.2058 4.09053 11.3853 3.26385 10.4868L3.46015 10.6057C4.46068 11.2092 5.16734 11.0106 6.29013 10.9781C6.30664 10.9765 6.3233 10.9784 6.33905 10.9836C6.35479 10.9888 6.36927 10.9972 6.38156 11.0084C6.39384 11.0195 6.40366 11.0331 6.41038 11.0483C6.41709 11.0635 6.42056 11.0799 6.42056 11.0964C6.42056 11.113 6.41709 11.1294 6.41038 11.1446C6.40366 11.1598 6.39384 11.1734 6.38156 11.1845C6.36927 11.1956 6.35479 11.2041 6.33905 11.2093C6.3233 11.2145 6.30664 11.2164 6.29013 11.2148H6.29237Z" fill="#E54559"/>
<path fill-rule="evenodd" clip-rule="evenodd" d="M15.8722 14.0845H16.2659L18.7908 14.0946C18.7908 14.0946 19.2395 10.3774 18.8121 9.6382C18.684 9.43138 18.5234 9.24655 18.3365 9.09082C16.9411 9.13344 15.7914 9.67073 15.4202 10.5546C15.0377 11.4777 15.0029 11.4777 15.299 12.3022C15.5951 13.1266 15.8767 13.9723 15.8767 13.9723L15.8722 14.0845Z" fill="#952327"/>
<path fill-rule="evenodd" clip-rule="evenodd" d="M17.7964 12.0232C18.0117 12.0232 18.1766 12.0232 18.2686 12.51C18.3606 12.9968 18.392 13.6193 18.2069 13.6777C18.0218 13.736 16.7487 13.8616 16.4201 13.6283C16.0914 13.395 15.6607 12.4606 15.7022 12.335C15.7437 12.2094 16.2428 12.0815 17.7964 12.0232Z" fill="black"/>
<path fill-rule="evenodd" clip-rule="evenodd" d="M16.1611 12.4225L16.0894 12.436L16.1084 12.5706C16.1084 12.5706 16.8173 12.5078 17.9805 12.4169L17.9625 12.3047C17.9605 12.3016 17.9579 12.2989 17.9547 12.2969C17.865 12.2599 16.3911 12.4023 16.1611 12.4225Z" fill="#6D6E70"/>
<path fill-rule="evenodd" clip-rule="evenodd" d="M18.0373 12.6201C16.9448 12.7054 16.2673 12.7648 16.1753 12.7727C16.1977 12.8187 16.2202 12.8635 16.2448 12.9095C16.4378 12.8927 17.0895 12.8366 18.0563 12.7614L18.0373 12.6201Z" fill="#6D6E70"/>
<path fill-rule="evenodd" clip-rule="evenodd" d="M18.1094 12.9626C17.212 13.0322 16.603 13.0849 16.3596 13.1051C16.3865 13.1488 16.4168 13.196 16.4482 13.2408C16.7275 13.2161 17.313 13.1679 18.1206 13.1051C18.1172 13.0535 18.1127 13.0053 18.1094 12.9626Z" fill="#6D6E70"/>
<path fill-rule="evenodd" clip-rule="evenodd" d="M18.1284 13.3135C17.4341 13.3673 16.9136 13.4111 16.6141 13.4357L16.6276 13.447C16.766 13.5073 16.9152 13.5393 17.0662 13.5412C17.3466 13.5176 17.7033 13.4896 18.1205 13.4571C18.1256 13.4094 18.1283 13.3614 18.1284 13.3135Z" fill="#6D6E70"/>
<path fill-rule="evenodd" clip-rule="evenodd" d="M16.5791 8.1267C16.3828 8.91187 15.6178 9.48504 14.928 9.9898C14.831 10.0489 14.7414 10.1193 14.661 10.1996C14.8891 10.1153 15.1055 10.0022 15.3049 9.86305C16.0037 9.41438 16.6284 8.89841 16.8528 8.16371C16.8543 8.14768 16.8526 8.13149 16.8477 8.11613C16.8429 8.10077 16.835 8.08654 16.8245 8.07429C16.8141 8.06205 16.8012 8.05203 16.7868 8.04485C16.7724 8.03767 16.7567 8.03346 16.7406 8.03248C16.7067 8.02476 16.6712 8.0302 16.6412 8.04769C16.6112 8.06519 16.589 8.09343 16.5791 8.1267Z" fill="black"/>
<path fill-rule="evenodd" clip-rule="evenodd" d="M16.7518 9.53629C16.4681 9.64846 15.9229 10.0096 15.7423 10.2429C15.6156 10.4056 15.4922 10.5794 15.3823 10.7544C15.3646 10.7807 15.3546 10.8114 15.3532 10.8431C15.3518 10.8747 15.3592 10.9061 15.3744 10.9339C15.3895 10.9631 15.4119 10.9878 15.4395 11.0057C15.467 11.0236 15.4987 11.034 15.5315 11.036C15.6941 11.0517 15.868 11.055 16.0306 11.0562C16.4387 11.057 16.8464 11.0307 17.251 10.9776C17.6279 10.9272 18.1158 10.8262 18.3031 10.4718C18.4299 10.2306 18.3828 9.94009 18.3199 9.6866C18.2944 9.57993 18.2335 9.48505 18.1472 9.4174C17.7972 9.14932 17.122 9.38711 16.7518 9.53629Z" fill="black"/>
<path fill-rule="evenodd" clip-rule="evenodd" d="M16.8293 9.71048C17.324 9.51082 18.0183 9.30892 18.1259 9.73403C18.2796 10.3476 18.1764 10.6684 17.2219 10.7951C16.6674 10.871 16.1067 10.8906 15.5483 10.8535C15.5483 10.8535 15.7099 10.6 15.8994 10.3566C16.0553 10.1524 16.5792 9.8103 16.8293 9.71048Z" fill="black"/>
<path fill-rule="evenodd" clip-rule="evenodd" d="M18.0575 10.4833C18.0867 10.213 18.0373 9.82264 17.9554 9.71608C17.8433 9.5669 17.3374 9.67009 16.9459 9.80245C16.6955 9.89365 16.4643 10.0306 16.2639 10.2063C16.3321 10.2202 16.3954 10.2516 16.4479 10.2972C16.5004 10.3429 16.5402 10.4013 16.5634 10.4669C16.5867 10.5324 16.5926 10.6029 16.5806 10.6714C16.5686 10.7399 16.5391 10.8042 16.495 10.8579C16.1781 10.8765 15.8604 10.8743 15.5438 10.8512C16.0015 10.1311 16.145 9.96733 16.9145 9.67345C17.3991 9.48726 18.0205 9.33695 18.1214 9.73178C18.2078 10.0616 18.2168 10.3072 18.0575 10.4833Z" fill="white"/>
<path fill-rule="evenodd" clip-rule="evenodd" d="M15.3793 11.2148C16.5111 11.2058 17.5812 11.3853 18.4079 10.4868L18.2104 10.608C17.2088 11.2114 16.5032 11.0129 15.3793 10.9804C15.3628 10.9787 15.3462 10.9806 15.3304 10.9858C15.3147 10.991 15.3002 10.9995 15.2879 11.0106C15.2756 11.0218 15.2658 11.0354 15.2591 11.0505C15.2524 11.0657 15.2489 11.0821 15.2489 11.0987C15.2489 11.1153 15.2524 11.1317 15.2591 11.1468C15.2658 11.162 15.2756 11.1756 15.2879 11.1867C15.3002 11.1979 15.3147 11.2063 15.3304 11.2116C15.3462 11.2168 15.3628 11.2186 15.3793 11.217V11.2148Z" fill="#E54559"/>
<path fill-rule="evenodd" clip-rule="evenodd" d="M9.86088 11.9214C8.87493 11.8833 7.31468 11.6298 6.98603 11.5131C6.65738 11.3965 6.35116 10.8188 6.13356 10.4621C5.90362 10.083 6.61925 9.91699 6.90415 9.91699H14.785C15.0699 9.91699 15.7867 10.083 15.5556 10.4621C15.338 10.8188 15.0318 11.3965 14.7031 11.5131C14.3745 11.6298 12.8143 11.8833 11.8283 11.9214C11.1362 11.954 10.5563 11.954 9.86088 11.9214Z" fill="#C85A58"/>
<path fill-rule="evenodd" clip-rule="evenodd" d="M9.86088 11.7893C8.87493 11.7501 7.31468 11.4966 6.98603 11.3799C6.65738 11.2633 6.35116 10.6856 6.13356 10.3289C5.90362 9.95092 6.61925 9.78491 6.90415 9.78491H14.785C15.0699 9.78491 15.7867 9.95092 15.5556 10.3289C15.338 10.6856 15.0318 11.2633 14.7031 11.3799C14.3745 11.4966 12.8143 11.7501 11.8283 11.7893C11.1362 11.8163 10.5563 11.8163 9.86088 11.7893Z" fill="black"/>
<path fill-rule="evenodd" clip-rule="evenodd" d="M10.7694 11.6258H10.9466C11.2394 11.6258 11.531 11.6157 11.8238 11.6033C12.1793 11.5899 12.5372 11.554 12.8905 11.5113C13.2438 11.4687 13.6241 11.4138 13.9875 11.3487C14.1243 11.3252 14.2623 11.2982 14.3991 11.2691C14.4797 11.2533 14.5591 11.2323 14.6369 11.2063C14.8983 11.1143 15.246 10.4704 15.3873 10.2371C15.3952 10.2248 15.4109 10.1967 15.4053 10.181C15.3828 10.1149 15.1989 10.0487 15.1372 10.0296C15.024 9.99489 14.9067 9.97565 14.7884 9.97241H6.90412C6.78579 9.97565 6.66844 9.99489 6.55528 10.0296C6.49358 10.0487 6.30963 10.1149 6.2872 10.181C6.28159 10.1967 6.29729 10.2248 6.30514 10.2371C6.44647 10.4704 6.79531 11.1143 7.05554 11.2063C7.13341 11.2322 7.21283 11.2531 7.29334 11.2691C7.43018 11.2982 7.56815 11.3252 7.70499 11.3487C8.06841 11.4138 8.43632 11.4665 8.80199 11.5113C9.16765 11.5562 9.51313 11.5899 9.8687 11.6033C10.1615 11.6157 10.4531 11.6224 10.7458 11.6258H10.7694Z" fill="#1E1E1E"/>
<path fill-rule="evenodd" clip-rule="evenodd" d="M6.29392 10.1677H15.3986C15.4014 10.1715 15.4037 10.1756 15.4053 10.1801C15.4109 10.1958 15.3952 10.2238 15.3873 10.2361L15.3537 10.2922H6.33879L6.30514 10.2361C6.29729 10.2238 6.28159 10.1958 6.2872 10.1801C6.28879 10.1756 6.29106 10.1715 6.29392 10.1677Z" fill="black"/>
<path fill-rule="evenodd" clip-rule="evenodd" d="M6.48975 10.5474H15.2018C15.1771 10.5877 15.1513 10.6304 15.1244 10.6719H6.56826C6.54022 10.6304 6.51442 10.5877 6.48975 10.5474Z" fill="black"/>
<path fill-rule="evenodd" clip-rule="evenodd" d="M6.74561 10.9255H14.9462C14.9133 10.9689 14.8781 11.0105 14.8407 11.05H6.85104C6.81366 11.0105 6.77846 10.9689 6.74561 10.9255Z" fill="black"/>
<path fill-rule="evenodd" clip-rule="evenodd" d="M7.47546 11.3052H14.2156C14.1393 11.3209 14.0631 11.3343 13.9913 11.3478C13.823 11.3781 13.6548 11.405 13.4865 11.4297H8.21465C8.0464 11.405 7.87814 11.3781 7.70989 11.3478C7.62801 11.3343 7.55174 11.3209 7.47546 11.3052Z" fill="black"/>
<path fill-rule="evenodd" clip-rule="evenodd" d="M13.5436 5.70422C14.5194 5.72105 14.5946 5.76592 14.93 6.034C15.3394 6.36152 16.2008 7.72212 16.5485 8.23921C16.5609 8.20219 16.5721 8.16406 16.5811 8.12704C16.5849 8.10839 16.5934 8.09102 16.6058 8.07656C16.3063 7.62789 15.3551 6.23253 14.9232 5.88593C14.5867 5.61785 14.5127 5.57299 13.5369 5.54943C11.63 5.51578 9.75681 5.49223 7.85109 5.55728C7.16126 5.58084 7.06592 5.64365 6.77204 5.88033C6.33346 6.23141 5.36546 7.65481 5.07831 8.08554C5.08527 8.09642 5.08985 8.10865 5.09177 8.12143C5.10298 8.16518 5.11645 8.21004 5.13103 8.25379C5.46753 7.75016 6.44451 6.33573 6.85953 6.00371C7.15565 5.76704 7.17023 5.7289 7.86006 5.70534C9.76242 5.64702 11.6435 5.67282 13.5436 5.70422Z" fill="white"/>
<path fill-rule="evenodd" clip-rule="evenodd" d="M4.49859 13.8826H5.57764C5.61157 13.8893 5.64338 13.9041 5.67034 13.9258C5.69729 13.9475 5.7186 13.9754 5.73243 14.0071C5.77954 14.1013 5.81543 14.1574 5.63036 14.154C5.50249 14.154 4.87771 14.154 4.49859 14.154H4.4425C4.06338 14.154 3.433 14.154 3.31074 14.154C3.12566 14.154 3.16155 14.1013 3.20866 14.0071C3.22249 13.9754 3.2438 13.9475 3.27076 13.9258C3.29771 13.9041 3.32952 13.8893 3.36345 13.8826H4.4425H4.49859Z" fill="black"/>
<path fill-rule="evenodd" clip-rule="evenodd" d="M17.1401 13.8826H16.06C16.026 13.8893 15.9942 13.9041 15.9673 13.9258C15.9403 13.9475 15.919 13.9754 15.9052 14.0071C15.8581 14.1013 15.8222 14.1574 16.0084 14.154C16.1351 14.154 16.7599 14.154 17.1401 14.154H17.1951C17.5742 14.154 18.199 14.154 18.3269 14.154C18.5119 14.154 18.476 14.1013 18.4289 14.0071C18.4152 13.9753 18.3939 13.9474 18.3669 13.9257C18.34 13.904 18.3081 13.8892 18.2741 13.8826H17.1951H17.1401Z" fill="black"/>
<path fill-rule="evenodd" clip-rule="evenodd" d="M5.89343 12.7574C5.95545 12.6735 6.01275 12.5863 6.06505 12.496C6.27031 12.1517 6.32864 12.0474 7.35834 12.0474H14.9767C14.9767 12.0474 15.3469 12.0474 15.6273 12.5028L15.8696 12.8987L15.6453 13.0232L15.4041 12.6273C15.2011 12.2908 14.9801 12.2975 14.9801 12.2975H7.35834C6.48119 12.2975 6.43857 12.3682 6.29275 12.6138C6.23665 12.7116 6.17485 12.806 6.10767 12.8965L5.89343 12.7574Z" fill="#952327"/>
<path fill-rule="evenodd" clip-rule="evenodd" d="M3.49114 11.3851C3.49114 11.3851 2.88207 10.8747 2.95161 10.1815C2.98301 9.8439 3.12908 9.52722 3.36551 9.28418C3.43169 9.21688 3.63584 9.1507 3.93757 9.10471C3.81082 9.0004 3.43057 9.10471 3.3543 9.10471C3.16739 9.26044 3.00681 9.44527 2.8787 9.65209C2.69139 9.97401 2.67119 10.8601 2.70821 11.7586L2.72616 11.7362C2.86793 11.5806 3.05448 11.4728 3.26007 11.4277C3.33551 11.4059 3.41291 11.3917 3.49114 11.3851Z" fill="#CB2229"/>
<path fill-rule="evenodd" clip-rule="evenodd" d="M18.2001 11.3848C18.2001 11.3848 18.8092 10.8744 18.7396 10.1812C18.7073 9.81948 18.5433 9.48218 18.2786 9.23342C18.2248 9.18519 18.0644 9.10219 17.7795 9.11565C17.9589 8.94628 18.2607 9.09882 18.3403 9.09658C18.5272 9.25231 18.6878 9.43714 18.8159 9.64396C19.0032 9.96588 19.0234 10.852 18.9875 11.7505L18.9685 11.728C18.8267 11.5725 18.6401 11.4647 18.4345 11.4196C18.3577 11.4002 18.2792 11.3886 18.2001 11.3848Z" fill="#CB2229"/>
<path fill-rule="evenodd" clip-rule="evenodd" d="M5.9657 8.99373C6.22705 9.70711 6.7318 9.62187 6.7318 9.62187H11.0828V8.93652H6.43568L5.9657 8.99373Z" fill="#E54559"/>
<path fill-rule="evenodd" clip-rule="evenodd" d="M15.7257 8.99373C15.4643 9.70711 14.9596 9.62187 14.9596 9.62187H10.6108V8.93652H15.2557L15.7257 8.99373Z" fill="#E54559"/>
<path d="M14.9072 12.7646H6.78406V12.8577H14.9072V12.7646Z" fill="#6D6E70"/>
<path d="M15.065 13.0283H6.62781V13.1214H15.065V13.0283Z" fill="#6D6E70"/>
<path d="M15.2113 13.292H6.48132V13.3851H15.2113V13.292Z" fill="#6D6E70"/>
<path d="M15.2817 13.5564H6.41034V13.6495H15.2817V13.5564Z" fill="#6D6E70"/>
<path fill-rule="evenodd" clip-rule="evenodd" d="M4.93726 9.53629C5.22104 9.64846 5.7673 10.0096 5.94677 10.2429C6.07352 10.4056 6.1969 10.5794 6.30682 10.7544C6.32447 10.7807 6.33453 10.8114 6.33591 10.8431C6.3373 10.8747 6.32995 10.9061 6.31468 10.9339C6.29958 10.9631 6.27717 10.9878 6.24964 11.0057C6.22212 11.0236 6.19041 11.034 6.15764 11.036C5.995 11.0517 5.82114 11.055 5.6585 11.0562C5.25041 11.057 4.84273 11.0307 4.43811 10.9776C4.06123 10.9272 3.5733 10.8262 3.38599 10.4718C3.25924 10.2306 3.30635 9.94009 3.37028 9.6866C3.39493 9.57984 3.45552 9.4848 3.5419 9.4174C3.89298 9.14932 4.56711 9.38711 4.93726 9.53629Z" fill="black"/>
<path fill-rule="evenodd" clip-rule="evenodd" d="M4.85959 9.71048C4.36493 9.51082 3.67062 9.30892 3.56406 9.73403C3.40927 10.3476 3.51246 10.6684 4.46701 10.7951C5.02145 10.871 5.58216 10.8906 6.14054 10.8535C6.14054 10.8535 5.97902 10.6 5.78946 10.3566C5.63242 10.1524 5.11197 9.8103 4.85959 9.71048Z" fill="black"/>
<path fill-rule="evenodd" clip-rule="evenodd" d="M3.63178 10.4833C3.60261 10.213 3.65196 9.82264 3.73385 9.71608C3.84601 9.5669 4.35189 9.67009 4.74335 9.80245C4.99373 9.89365 5.22497 10.0306 5.42533 10.2063C5.35738 10.2205 5.29423 10.252 5.24196 10.2977C5.18969 10.3434 5.15005 10.4018 5.12684 10.4672C5.10364 10.5327 5.09765 10.603 5.10946 10.6714C5.12127 10.7398 5.15047 10.8041 5.19427 10.8579C5.51113 10.8765 5.82888 10.8743 6.14545 10.8512C5.6878 10.1311 5.54423 9.96733 4.77476 9.67345C4.2902 9.48726 3.66879 9.33695 3.56896 9.73178C3.48147 10.0616 3.4725 10.3072 3.63178 10.4833Z" fill="white"/>
<path fill-rule="evenodd" clip-rule="evenodd" d="M16.9677 8.22279C17.0911 7.79992 17.1416 7.74271 17.293 7.74271H18.1298C18.1861 7.7467 18.2401 7.76653 18.2857 7.79991C18.2857 7.62269 18.0681 7.61035 18.0681 7.61035H17.2313C17.0698 7.61035 17.0227 7.67653 16.8791 8.18801H16.9026L16.9677 8.22279Z" fill="#CB2229"/>
<path fill-rule="evenodd" clip-rule="evenodd" d="M4.81317 8.18801C4.6696 7.67653 4.62249 7.61035 4.46097 7.61035H3.6242C3.6242 7.61035 3.42566 7.62157 3.40771 7.7786C3.44964 7.75323 3.49685 7.73788 3.54568 7.73374H4.38245C4.535 7.73374 4.58547 7.79318 4.71222 8.23064L4.78962 8.18465L4.81317 8.18801Z" fill="#CB2229"/>
</svg>
