<svg width="18" height="18" viewBox="0 0 18 18" fill="none" xmlns="http://www.w3.org/2000/svg">
<path d="M5.33153 7.79598L5.3309 7.80754C5.28654 8.59009 5.72166 9.32317 6.43971 9.67462L6.44704 9.67825C6.70023 9.80032 6.90765 10.0013 7.03858 10.2514L7.04151 10.2569C7.40332 10.9509 8.15162 11.3716 8.94939 11.3294L8.96149 11.3287C9.25082 11.3124 9.53798 11.3876 9.78276 11.5438C10.1138 11.7525 10.4965 11.8631 10.887 11.8631C11.2775 11.8631 11.6601 11.7525 11.9912 11.5438C12.236 11.3876 12.5231 11.3124 12.8125 11.3287L12.8246 11.3294C13.621 11.3719 14.3703 10.9508 14.7329 10.2557L14.7347 10.2519C14.8661 10.0012 15.0741 9.79976 15.3281 9.67757L15.3339 9.67462C16.052 9.323 16.4873 8.59004 16.4428 7.80737L16.4421 7.79649C16.4273 7.52084 16.5034 7.248 16.6584 7.0204C17.105 6.36425 17.105 5.49912 16.6586 4.84289C16.5035 4.61539 16.4274 4.34267 16.4421 4.0671L16.4428 4.05554C16.4873 3.27283 16.052 2.53991 15.3333 2.18812L15.3268 2.18483C15.0741 2.06321 14.867 1.86295 14.736 1.61363L14.7322 1.60621C14.3703 0.912204 13.621 0.491667 12.8246 0.533699L12.8123 0.534375C12.5231 0.55071 12.236 0.475482 11.9914 0.319232H11.991C11.66 0.110621 11.2773 0 10.8868 0C10.4963 0 10.1137 0.110621 9.7826 0.319232C9.53777 0.475357 9.25063 0.550517 8.96133 0.534206L8.94918 0.533531C8.15263 0.490992 7.40349 0.912035 7.04172 1.60587L7.03892 1.61102C6.90792 1.86151 6.70026 2.06279 6.44675 2.185L6.43984 2.18829C5.72183 2.53975 5.28658 3.27287 5.33107 4.05554L5.3317 4.06643C5.3465 4.34203 5.27045 4.61484 5.11537 4.84238C4.66882 5.49862 4.66882 6.36396 5.11537 7.02002C5.2704 7.24758 5.34639 7.52039 5.33153 7.79598ZM5.66699 5.22583C5.90638 4.8747 6.02375 4.45366 6.00082 4.02832L6.00015 4.01676C5.98866 3.76317 6.05207 3.51186 6.18236 3.29458C6.31264 3.0773 6.50396 2.90382 6.73211 2.79608L6.73785 2.79325C7.12053 2.60864 7.43395 2.30469 7.63163 1.92647L7.6349 1.92023C7.87527 1.45897 8.37879 1.17938 8.91353 1.20808L8.9253 1.20854C9.35317 1.23283 9.77786 1.12164 10.1398 0.890555C10.3638 0.749409 10.6227 0.674561 10.8868 0.674561C11.151 0.674561 11.4099 0.749409 11.6338 0.890555C11.9959 1.12138 12.4204 1.23262 12.8482 1.20875L12.8599 1.20808C13.3973 1.17972 13.8984 1.45897 14.1381 1.91888L14.1425 1.92732C14.3402 2.30498 14.6533 2.60848 15.0355 2.79291L15.0411 2.79574C15.5149 3.02785 15.8026 3.50705 15.7737 4.01692L15.773 4.02895C15.7501 4.45424 15.8676 4.87521 16.107 5.22625C16.2483 5.43392 16.3239 5.67982 16.3239 5.93161C16.3238 6.1834 16.2481 6.42927 16.1066 6.63687C15.8674 6.98812 15.7501 7.40919 15.773 7.83455L15.7737 7.8459C15.8026 8.35578 15.5149 8.83515 15.0409 9.06742L15.036 9.06975C14.6529 9.25468 14.3392 9.55909 14.1414 9.93783L14.1389 9.94277C13.8984 10.404 13.3957 10.6838 12.8601 10.6549L12.8485 10.6543C12.4205 10.6302 11.9958 10.7415 11.6337 10.9724C11.4097 11.1135 11.1509 11.1883 10.8868 11.1883C10.6227 11.1883 10.3639 11.1135 10.14 10.9724C9.81073 10.7622 9.42886 10.6508 9.03903 10.6511C9.00125 10.6511 8.9633 10.6521 8.9253 10.6543L8.91357 10.6547C8.65507 10.6713 8.39727 10.6129 8.17061 10.4866C7.94395 10.3603 7.75789 10.1713 7.63439 9.94197L7.63096 9.93551C7.43356 9.55798 7.12068 9.25456 6.73868 9.07021L6.7324 9.06709C6.25836 8.83498 5.9707 8.35557 5.99986 7.8459L6.00048 7.83388C6.02323 7.40859 5.90583 6.98765 5.66653 6.63654C5.52527 6.42887 5.44971 6.183 5.4498 5.93126C5.44988 5.67951 5.5256 5.43369 5.66699 5.22612V5.22583Z" fill="#AB1216"/>
<path d="M8.72456 9.42175C8.88148 9.5205 9.08817 9.47218 9.1862 9.3141L13.1561 2.90707C13.1795 2.86945 13.1952 2.82758 13.2024 2.78384C13.2097 2.74011 13.2083 2.69536 13.1984 2.65216C13.1884 2.60896 13.1702 2.56815 13.1446 2.53206C13.119 2.49598 13.0866 2.46532 13.0493 2.44184C13.0119 2.41836 12.9704 2.40252 12.927 2.39523C12.8835 2.38793 12.8391 2.38932 12.7963 2.39932C12.7534 2.40931 12.7129 2.42772 12.677 2.45349C12.6412 2.47926 12.6108 2.51188 12.5875 2.5495L8.6177 8.95652C8.59438 8.99413 8.57864 9.036 8.57139 9.07974C8.56414 9.12348 8.56551 9.16823 8.57543 9.21143C8.58535 9.25464 8.60362 9.29545 8.62921 9.33154C8.65479 9.36762 8.68717 9.39828 8.72452 9.42175H8.72456ZM9.0803 5.94819C9.89633 5.94819 10.5604 5.18544 10.5604 4.2479C10.5604 3.31035 9.89633 2.54789 9.0803 2.54789C8.26426 2.54789 7.60038 3.31047 7.60038 4.24798C7.60038 5.18549 8.26422 5.94824 9.0803 5.94824V5.94819ZM9.0803 3.22308C9.52685 3.22308 9.89013 3.68282 9.89013 4.24794C9.89013 4.81306 9.52685 5.27297 9.0803 5.27297C8.63387 5.27297 8.27063 4.81289 8.27063 4.2479C8.27063 3.68299 8.63387 3.22308 9.0803 3.22308ZM11.2135 7.61545C11.2135 8.55299 11.8773 9.31557 12.6934 9.31557C13.5095 9.31557 14.1735 8.55282 14.1735 7.61549C14.1735 6.67832 13.5096 5.9154 12.6935 5.9154C11.8773 5.9154 11.2135 6.67777 11.2135 7.61545ZM13.5032 7.61545C13.5032 8.18057 13.1399 8.64035 12.6934 8.64035C12.2469 8.64035 11.8837 8.18057 11.8837 7.61549C11.8837 7.05041 12.2469 6.59063 12.6934 6.59063C13.1399 6.59063 13.5032 7.04999 13.5032 7.61545ZM17.9565 13.2217C17.5128 12.4283 16.5287 12.1261 15.7211 12.5353L13.0959 13.7848C12.9178 13.4512 12.6555 13.1707 12.3354 12.9718C12.0154 12.7729 11.6489 12.6625 11.273 12.6518L8.84956 12.5845C8.46574 12.5734 8.08932 12.4755 7.74813 12.298L7.50152 12.1693C6.8794 11.8426 6.18809 11.6724 5.48655 11.6732C4.78501 11.6739 4.09405 11.8456 3.47263 12.1736L3.48804 11.6108C3.48927 11.5665 3.48181 11.5223 3.4661 11.4809C3.45039 11.4395 3.42673 11.4015 3.39647 11.3693C3.36621 11.3371 3.32995 11.3112 3.28976 11.2931C3.24956 11.275 3.20622 11.2651 3.16222 11.2639L0.504788 11.1902C0.460797 11.189 0.416999 11.1965 0.375894 11.2124C0.334789 11.2282 0.297183 11.252 0.265225 11.2825C0.233267 11.313 0.207583 11.3495 0.189641 11.39C0.171698 11.4305 0.161849 11.4741 0.160655 11.5184L0.000129094 17.3935C-0.0010925 17.4379 0.00636575 17.482 0.0220779 17.5234C0.03779 17.5648 0.0614482 17.6027 0.0917013 17.6349C0.121954 17.6671 0.15821 17.693 0.198396 17.7111C0.238583 17.7292 0.281914 17.7392 0.325914 17.7404L2.98338 17.8141H2.99268C3.07995 17.814 3.16376 17.7796 3.22631 17.7183C3.28885 17.657 3.32522 17.5736 3.32768 17.4857L3.33522 17.2046L4.02558 16.8322C4.2965 16.6853 4.6135 16.6504 4.90952 16.7348L9.032 17.9004C9.0392 17.9026 9.04641 17.9042 9.05378 17.9059C9.35182 17.9687 9.65552 18.0002 9.96 18C10.6047 18.0004 11.2419 17.8603 11.8279 17.5894C11.8423 17.5828 11.8562 17.5752 11.8695 17.5666L17.8467 13.6714C17.9185 13.6247 17.9699 13.5521 17.9903 13.4685C18.0107 13.3849 17.9986 13.2966 17.9565 13.2217ZM0.67943 17.0745L0.82144 11.8747L2.80899 11.9297L2.66673 17.1298L0.67943 17.0745ZM11.5259 16.986C10.7978 17.317 9.98475 17.4083 9.2022 17.2471L5.0907 16.0847C4.62808 15.9529 4.13272 16.0075 3.70931 16.2369L3.3565 16.4272L3.45109 12.9698C4.56887 12.2207 6.00266 12.1437 7.19328 12.7686L7.4399 12.8973C7.87087 13.1216 8.34639 13.2453 8.83126 13.2594L11.2547 13.3267C11.9354 13.3463 12.5135 13.8345 12.6517 14.5065L9.04188 14.4064C8.99789 14.4052 8.95409 14.4127 8.91299 14.4285C8.87189 14.4444 8.83428 14.4682 8.80232 14.4987C8.77036 14.5292 8.74468 14.5657 8.72674 14.6062C8.70879 14.6467 8.69895 14.6903 8.69775 14.7346C8.69653 14.7789 8.70399 14.8231 8.7197 14.8645C8.73541 14.9059 8.75907 14.9438 8.78932 14.976C8.81958 15.0082 8.85583 15.0341 8.89602 15.0522C8.9362 15.0703 8.97954 15.0803 9.02354 15.0815L13.0073 15.1919H13.0167C13.104 15.1918 13.1877 15.1575 13.2503 15.0961C13.3128 15.0348 13.3491 14.9514 13.3516 14.8635C13.3556 14.7168 13.3447 14.57 13.3191 14.4255L16.0113 13.1438L16.0191 13.14C16.2056 13.0449 16.4165 13.0095 16.6235 13.0387C16.8305 13.0679 17.0237 13.1602 17.177 13.3032L11.5259 16.986Z" fill="#AB1216"/>
</svg>
