<svg width="23" height="23" viewBox="0 0 23 23" fill="none" xmlns="http://www.w3.org/2000/svg">
<path d="M11.5 22C17.299 22 22 17.299 22 11.5C22 5.70101 17.299 1 11.5 1C5.70101 1 1 5.70101 1 11.5C1 17.299 5.70101 22 11.5 22Z" stroke="#9B9B9B"/>
<path d="M6.77515 16.7495C9.22343 14.1852 13.7505 14.0645 16.2251 16.7495M14.12 8.87451C14.12 10.3242 12.9431 11.4995 11.4912 11.4995C10.0395 11.4995 8.86252 10.3242 8.86252 8.87451C8.86252 7.42477 10.0395 6.24951 11.4912 6.24951C12.9431 6.24951 14.12 7.42477 14.12 8.87451Z" stroke="#9B9B9B" stroke-linecap="round"/>
</svg>
