<svg width="12" height="12" viewBox="0 0 12 12" fill="none" xmlns="http://www.w3.org/2000/svg">
<path d="M10.1639 11.4362C10.5153 11.7876 11.0851 11.7876 11.4366 11.4362C11.7881 11.0847 11.7881 10.5149 11.4366 10.1634L10.1639 11.4362ZM8.24386 9.51616L10.1639 11.4362L11.4366 10.1634L9.51658 8.24345L8.24386 9.51616ZM10.7402 5.51981C10.7402 2.63688 8.4031 0.299805 5.52022 0.299805V2.0998C7.40902 2.0998 8.94022 3.63101 8.94022 5.51981H10.7402ZM5.52022 0.299805C2.63729 0.299805 0.300217 2.63688 0.300217 5.51981H2.10022C2.10022 3.63101 3.63142 2.0998 5.52022 2.0998V0.299805ZM0.300217 5.51981C0.300217 8.40269 2.63729 10.7398 5.52022 10.7398V8.93981C3.63142 8.93981 2.10022 7.40861 2.10022 5.51981H0.300217ZM5.52022 10.7398C8.4031 10.7398 10.7402 8.40269 10.7402 5.51981H8.94022C8.94022 7.40861 7.40902 8.93981 5.52022 8.93981V10.7398Z" fill="white"/>
</svg>
