<svg width="24" height="24" viewBox="0 0 24 24" fill="none" xmlns="http://www.w3.org/2000/svg">
<g clip-path="url(#clip0_156_10398)">
<path d="M20.485 20.4853C25.1713 15.799 25.1713 8.20102 20.485 3.51473C15.7987 -1.17155 8.20078 -1.17156 3.51449 3.51473C-1.17179 8.20102 -1.17179 15.799 3.51449 20.4853C8.20078 25.1716 15.7987 25.1716 20.485 20.4853Z" fill="url(#paint0_linear_156_10398)"/>
<path d="M17.839 6.90312L15.6956 17.7093C15.6956 17.7093 15.3961 18.4589 14.5715 18.0992L9.62543 14.3073L7.82687 13.4377L4.79945 12.4189C4.79945 12.4189 4.33497 12.2538 4.29001 11.8941C4.24504 11.5344 4.81428 11.3397 4.81428 11.3397L16.8498 6.6185C16.8498 6.6185 17.839 6.1837 17.839 6.90312Z" fill="white"/>
<path d="M9.24552 17.587C9.24552 17.587 9.10118 17.573 8.92133 17.0024C8.74147 16.4319 7.8269 13.435 7.8269 13.435L15.0962 8.82034C15.0962 8.82034 15.5157 8.56539 15.5009 8.82034C15.5009 8.82034 15.576 8.8653 15.3512 9.07484C15.1263 9.28437 9.64075 14.216 9.64075 14.216" fill="#D3E6F2"/>
<path d="M11.522 15.7595L9.56563 17.5432C9.56563 17.5432 9.41275 17.6592 9.24548 17.5882L9.62228 14.2734" fill="#B6D0E5"/>
</g>
<defs>
<linearGradient id="paint0_linear_156_10398" x1="11.9996" y1="-0.000132313" x2="11.9996" y2="23.9126" gradientUnits="userSpaceOnUse">
<stop stop-color="#42BDE9"/>
<stop offset="1" stop-color="#23A8DD"/>
</linearGradient>
<clipPath id="clip0_156_10398">
<rect width="24" height="24" fill="white"/>
</clipPath>
</defs>
</svg>
