<svg width="26" height="26" viewBox="0 0 26 26" fill="none" xmlns="http://www.w3.org/2000/svg">
<g filter="url(#filter0_d_156_13960)">
<path d="M20.4443 0.0118862C20.4256 -0.0252566 8.09821 0.0390166 8.06929 0.0118862C7.65716 0.0123137 7.26203 0.177012 6.97061 0.469839C6.67919 0.762666 6.51528 1.1597 6.51486 1.57382V14.8516H4.96429C4.70862 14.8518 4.4635 14.954 4.28271 15.1357C4.10193 15.3173 4.00026 15.5636 4 15.8205V16.4135C4.00051 16.8341 4.16702 17.2373 4.463 17.5348C4.75898 17.8322 5.16027 17.9995 5.57886 18H17.9211C18.3344 18.0003 18.731 17.8362 19.0241 17.5435C19.3173 17.2508 19.4832 16.8533 19.4855 16.4381V5.63757H21.0357C21.2914 5.63732 21.5365 5.53515 21.7173 5.35349C21.8981 5.17183 21.9997 4.92553 22 4.66863V1.57511C21.9996 1.16065 21.8355 0.763287 21.5439 0.470217C21.2522 0.177148 20.8568 0.0123137 20.4443 0.0118862ZM5.57886 17.354C5.33069 17.3538 5.09277 17.2546 4.91729 17.0783C4.74181 16.902 4.64311 16.6629 4.64286 16.4135V15.8208C4.64294 15.7352 4.67683 15.6531 4.7371 15.5926C4.79736 15.532 4.87906 15.4979 4.96429 15.4979H16.0555C16.1407 15.4979 16.2224 15.532 16.2827 15.5926C16.343 15.6531 16.3768 15.7352 16.3769 15.8208V16.368C16.3756 16.7216 16.4854 17.0667 16.6906 17.354H5.57886ZM18.8423 16.4381C18.8407 16.5604 18.8148 16.6812 18.7661 16.7933C18.7174 16.9054 18.6468 17.0066 18.5585 17.0909C18.4703 17.1751 18.3661 17.2408 18.2522 17.284C18.1383 17.3272 18.0169 17.347 17.8953 17.3423C17.7736 17.3377 17.6541 17.3086 17.5438 17.2567C17.4335 17.2049 17.3346 17.1315 17.2531 17.0406C17.1715 16.9498 17.1088 16.8435 17.0687 16.728C17.0287 16.6125 17.012 16.4901 17.0198 16.368V15.8208C17.0195 15.5639 16.9179 15.3176 16.7371 15.136C16.5563 14.9543 16.3112 14.8522 16.0555 14.8519H7.15771V1.57382C7.15797 1.33103 7.25405 1.09824 7.42488 0.926529C7.5957 0.754815 7.82733 0.65819 8.06896 0.657849H19.1441C18.9486 0.923404 18.8428 1.24481 18.842 1.57511V16.4377L18.8423 16.4381ZM21.3571 4.66863C21.3571 4.75426 21.3232 4.83636 21.2629 4.89692C21.2026 4.95747 21.1209 4.99152 21.0357 4.99161H19.4851V1.57511C19.5121 0.359414 21.3301 0.359091 21.3571 1.57511V4.66863Z" fill="#AB1216"/>
<path d="M16.8571 4.92969H9.14278C9.05753 4.92969 8.97577 4.96372 8.91549 5.02429C8.85521 5.08486 8.82135 5.16701 8.82135 5.25267C8.82135 5.33833 8.85521 5.42048 8.91549 5.48105C8.97577 5.54162 9.05753 5.57565 9.14278 5.57565H16.8571C16.9423 5.57565 17.0241 5.54162 17.0843 5.48105C17.1446 5.42048 17.1785 5.33833 17.1785 5.25267C17.1785 5.16701 17.1446 5.08486 17.0843 5.02429C17.0241 4.96372 16.9423 4.92969 16.8571 4.92969Z" fill="#AB1216"/>
<path d="M16.857 6.66406H9.14272C9.05747 6.66406 8.97571 6.69809 8.91543 6.75866C8.85515 6.81923 8.82129 6.90138 8.82129 6.98704C8.82129 7.0727 8.85515 7.15486 8.91543 7.21543C8.97571 7.276 9.05747 7.31002 9.14272 7.31002H16.857C16.9423 7.31002 17.024 7.276 17.0843 7.21543C17.1446 7.15486 17.1784 7.0727 17.1784 6.98704C17.1784 6.90138 17.1446 6.81923 17.0843 6.75866C17.024 6.69809 16.9423 6.66406 16.857 6.66406Z" fill="#AB1216"/>
<path d="M16.8571 8.40234H9.14278C9.05753 8.40234 8.97577 8.43637 8.91549 8.49694C8.85521 8.55751 8.82135 8.63966 8.82135 8.72532C8.82135 8.81098 8.85521 8.89314 8.91549 8.95371C8.97577 9.01428 9.05753 9.04831 9.14278 9.04831H16.8571C16.9423 9.04831 17.0241 9.01428 17.0843 8.95371C17.1446 8.89314 17.1785 8.81098 17.1785 8.72532C17.1785 8.63966 17.1446 8.55751 17.0843 8.49694C17.0241 8.43637 16.9423 8.40234 16.8571 8.40234Z" fill="#AB1216"/>
<path d="M16.857 10.1367H9.14272C9.05747 10.1367 8.97571 10.1707 8.91543 10.2313C8.85515 10.2919 8.82129 10.374 8.82129 10.4597C8.82129 10.5454 8.85515 10.6275 8.91543 10.6881C8.97571 10.7487 9.05747 10.7827 9.14272 10.7827H16.857C16.9423 10.7827 17.024 10.7487 17.0843 10.6881C17.1446 10.6275 17.1784 10.5454 17.1784 10.4597C17.1784 10.374 17.1446 10.2919 17.0843 10.2313C17.024 10.1707 16.9423 10.1367 16.857 10.1367Z" fill="#AB1216"/>
</g>
<defs>
<filter id="filter0_d_156_13960" x="0" y="0" width="26" height="26" filterUnits="userSpaceOnUse" color-interpolation-filters="sRGB">
<feFlood flood-opacity="0" result="BackgroundImageFix"/>
<feColorMatrix in="SourceAlpha" type="matrix" values="0 0 0 0 0 0 0 0 0 0 0 0 0 0 0 0 0 0 127 0" result="hardAlpha"/>
<feOffset dy="4"/>
<feGaussianBlur stdDeviation="2"/>
<feComposite in2="hardAlpha" operator="out"/>
<feColorMatrix type="matrix" values="0 0 0 0 0 0 0 0 0 0 0 0 0 0 0 0 0 0 0.25 0"/>
<feBlend mode="normal" in2="BackgroundImageFix" result="effect1_dropShadow_156_13960"/>
<feBlend mode="normal" in="SourceGraphic" in2="effect1_dropShadow_156_13960" result="shape"/>
</filter>
</defs>
</svg>
