<svg width="66" height="87" viewBox="0 0 66 87" fill="none" xmlns="http://www.w3.org/2000/svg">
<path d="M3.08029 72.3178L3.07826 72.319C2.20413 72.8064 1.38622 73.3884 0.63927 74.0545L0.424375 74.2462L0.644281 74.432C9.69024 82.078 21.156 86.2657 33.0004 86.2496C45.2384 86.2495 56.4511 81.869 65.1678 74.5991L65.3945 74.41L65.1706 74.2176C64.3524 73.514 63.4527 72.9112 62.4908 72.422L62.4893 72.4213L46.5138 64.4344C45.5433 63.9492 44.7271 63.2034 44.1567 62.2805C43.5862 61.3575 43.2841 60.294 43.284 59.209V53.0348C43.725 52.5264 44.2216 51.8875 44.7494 51.1421L44.7498 51.1415C46.8953 48.0925 48.5676 44.7369 49.7103 41.1887C51.7947 40.4886 53.3199 38.5349 53.3199 36.2165V29.5259C53.3199 28.018 52.6662 26.669 51.6482 25.709V16.1619L51.6518 16.1309C51.6551 16.1005 51.6596 16.0564 51.6646 15.9993C51.6745 15.8851 51.6862 15.7191 51.6936 15.5088C51.7084 15.0882 51.7063 14.4894 51.6391 13.7716C51.5046 12.3372 51.1094 10.4206 50.0632 8.50153C47.9591 4.64176 43.2643 0.845703 33.0019 0.845703C22.7396 0.845703 18.0447 4.64176 15.9407 8.50153C14.8945 10.4206 14.4992 12.3372 14.3648 13.7716C14.2976 14.4894 14.2954 15.0882 14.3103 15.5088C14.3177 15.7191 14.3294 15.8851 14.3393 15.9993C14.3442 16.0564 14.3488 16.1005 14.3521 16.1309L14.3557 16.1619V25.7079C13.845 26.1827 13.4339 26.7549 13.147 27.3913C12.8445 28.0621 12.6867 28.7891 12.684 29.525V29.5259V36.2165C12.684 38.0323 13.6199 39.6323 15.0262 40.5796C15.8739 44.2088 17.383 47.3256 18.683 49.5391C19.3392 50.6564 19.9431 51.5451 20.3835 52.1553C20.6037 52.4604 20.7831 52.6959 20.9079 52.8557C20.9666 52.9308 21.0132 52.9892 21.0463 53.0302V59.054C21.0449 60.1032 20.7613 61.1327 20.2252 62.0346C19.6891 62.9365 18.9202 63.6776 17.9992 64.1801L3.08029 72.3178Z" fill="#F1ECEC" stroke="#E2E2E2" stroke-width="0.5"/>
</svg>
