<svg width="16" height="12" viewBox="0 0 16 12" fill="none" xmlns="http://www.w3.org/2000/svg">
<path d="M8 9.02549C8.81948 9.02549 9.51483 8.73179 10.086 8.14439C10.6567 7.55754 10.9421 6.84276 10.9421 6.00006C10.9421 5.15736 10.6567 4.44231 10.086 3.8549C9.51483 3.26805 8.81948 2.97463 8 2.97463C7.18052 2.97463 6.48544 3.26805 5.91476 3.8549C5.34354 4.44231 5.05794 5.15736 5.05794 6.00006C5.05794 6.84276 5.34354 7.55754 5.91476 8.14439C6.48544 8.73179 7.18052 9.02549 8 9.02549ZM8 8.23805C7.39547 8.23805 6.88175 8.02033 6.45884 7.58489C6.0354 7.15 5.82368 6.62172 5.82368 6.00006C5.82368 5.3784 6.0354 4.84984 6.45884 4.4144C6.88175 3.97951 7.39547 3.76207 8 3.76207C8.60454 3.76207 9.11852 3.97951 9.54197 4.4144C9.96487 4.84984 10.1763 5.3784 10.1763 6.00006C10.1763 6.62172 9.96487 7.15 9.54197 7.58489C9.11852 8.02033 8.60454 8.23805 8 8.23805ZM8 11.3878C6.25357 11.3878 4.66163 10.901 3.22418 9.92732C1.78673 8.9531 0.712007 7.64402 0 6.00006C0.712007 4.3561 1.78673 3.04702 3.22418 2.0728C4.66163 1.09914 6.25357 0.612305 8 0.612305C9.74643 0.612305 11.3384 1.09914 12.7758 2.0728C14.2133 3.04702 15.288 4.3561 16 6.00006C15.288 7.64402 14.2133 8.9531 12.7758 9.92732C11.3384 10.901 9.74643 11.3878 8 11.3878ZM8 10.5589C9.51805 10.5589 10.912 10.1478 12.1818 9.32555C13.451 8.50385 14.4215 7.39535 15.0932 6.00006C14.4215 4.60477 13.451 3.496 12.1818 2.67374C10.912 1.85204 9.51805 1.44119 8 1.44119C6.48195 1.44119 5.08803 1.85204 3.81824 2.67374C2.54898 3.496 1.57851 4.60477 0.906801 6.00006C1.57851 7.39535 2.54898 8.50385 3.81824 9.32555C5.08803 10.1478 6.48195 10.5589 8 10.5589Z" fill="#8B8B8B"/>
</svg>
