<svg width="22" height="22" viewBox="0 0 22 22" fill="none" xmlns="http://www.w3.org/2000/svg">
<path d="M18.8232 3.23584C16.977 1.38599 14.5253 0.251539 11.9102 0.0371136C9.29515 -0.177312 6.68893 0.542403 4.56165 2.06644C2.43436 3.59048 0.926062 5.81851 0.308804 8.34865C-0.308454 10.8788 0.00596663 13.5445 1.19535 15.8649L0.0278216 21.4882C0.0157073 21.5442 0.0153641 21.6021 0.026814 21.6582C0.0382638 21.7143 0.0612599 21.7674 0.0943644 21.8143C0.14286 21.8855 0.212085 21.9403 0.292794 21.9714C0.373503 22.0025 0.461855 22.0084 0.546051 21.9884L6.10139 20.682C8.43375 21.8321 11.1018 22.124 13.6307 21.5057C16.1596 20.8874 18.3854 19.3991 19.912 17.3056C21.4386 15.212 22.1671 12.649 21.9677 10.0727C21.7683 7.49631 20.6541 5.07367 18.8232 3.23584ZM17.0911 16.9511C15.8137 18.2148 14.1688 19.049 12.3882 19.3361C10.6076 19.6233 8.78113 19.3488 7.16608 18.5515L6.39176 18.1714L2.98597 18.9716L2.99605 18.9296L3.70181 15.5288L3.32271 14.7866C2.4975 13.1788 2.20639 11.3531 2.4911 9.57105C2.77581 7.78903 3.62172 6.14211 4.90765 4.86623C6.52345 3.26373 8.71464 2.3635 10.9994 2.3635C13.2841 2.3635 15.4753 3.26373 17.0911 4.86623C17.1048 4.88189 17.1197 4.89659 17.1355 4.91024C18.7312 6.51688 19.6221 8.68422 19.6137 10.9398C19.6054 13.1953 18.6987 15.3561 17.0911 16.9511Z" fill="#29A71A"/>
<path d="M16.7886 14.4567C16.3712 15.1089 15.7119 15.9071 14.8831 16.1051C13.4312 16.4532 11.2031 16.1171 8.43043 13.5525L8.39615 13.5225C5.95825 11.2799 5.32509 9.41349 5.47834 7.93313C5.56303 7.09293 6.26879 6.33275 6.86364 5.83663C6.95769 5.757 7.06921 5.7003 7.18929 5.67108C7.30937 5.64185 7.43468 5.64091 7.55519 5.66832C7.67571 5.69573 7.78809 5.75074 7.88334 5.82894C7.97859 5.90714 8.05408 6.00637 8.10377 6.11869L9.00109 8.11918C9.0594 8.24889 9.08101 8.3919 9.0636 8.53287C9.0462 8.67385 8.99043 8.80746 8.90228 8.91937L8.44858 9.50351C8.35123 9.62412 8.29249 9.77088 8.27991 9.92489C8.26733 10.0789 8.30149 10.2331 8.378 10.3677C8.63208 10.8098 9.24105 11.46 9.91656 12.0621C10.6747 12.7423 11.5156 13.3644 12.048 13.5765C12.1904 13.6342 12.347 13.6483 12.4976 13.6169C12.6482 13.5856 12.7859 13.5102 12.8929 13.4004L13.4191 12.8743C13.5207 12.775 13.647 12.7041 13.7851 12.669C13.9233 12.6338 14.0684 12.6357 14.2056 12.6743L16.337 13.2744C16.4545 13.3102 16.5623 13.3722 16.652 13.4556C16.7418 13.5391 16.8111 13.6417 16.8546 13.7558C16.8982 13.8699 16.9149 13.9924 16.9035 14.1139C16.8921 14.2353 16.8528 14.3526 16.7886 14.4567Z" fill="#29A71A"/>
</svg>
